<svg width="20" height="20" viewBox="0 0 20 20" fill="none" xmlns="http://www.w3.org/2000/svg">
<path fill-rule="evenodd" clip-rule="evenodd" d="M18 17.5509C18 17.7989 17.7989 18 17.5509 18H2.44912C2.20108 18 2 17.7989 2 17.5509L2 2.44912C2 2.20108 2.20108 2 2.44912 2H3.23509C3.48313 2 3.68421 2.20108 3.68421 2.44912V15.8667C3.68421 16.1147 3.88529 16.3158 4.13333 16.3158H17.5509C17.7989 16.3158 18 16.5169 18 16.7649V17.5509Z" fill="currentColor"/>
<path d="M5.08789 8.36145C5.08789 8.24234 5.13521 8.1281 5.21944 8.04387L7.5978 5.66551C7.76499 5.49832 8.03318 5.48939 8.21112 5.64509L12.1592 9.09967C12.2965 9.21977 12.4927 9.24494 12.6558 9.16338L14.23 8.37627C14.4519 8.26534 14.7217 8.35527 14.8326 8.57713L17.6752 14.2623C17.8245 14.5609 17.6073 14.9123 17.2735 14.9123H5.53701C5.28897 14.9123 5.08789 14.7112 5.08789 14.4631V8.36145Z" fill="currentColor"/>
</svg>
