<svg width="20" height="20" viewBox="0 0 20 20" fill="none" xmlns="http://www.w3.org/2000/svg">
<path fill-rule="evenodd" clip-rule="evenodd" d="M18 17.5509C18 17.7989 17.7989 18 17.5509 18H2.44912C2.20108 18 2 17.7989 2 17.5509L2 2.44912C2 2.20108 2.20108 2 2.44912 2H3.23509C3.48313 2 3.68421 2.20108 3.68421 2.44912V15.8667C3.68421 16.1147 3.88529 16.3158 4.13333 16.3158H17.5509C17.7989 16.3158 18 16.5169 18 16.7649V17.5509Z" fill="#002FA7"/>
<path d="M5.08777 8.36142C5.08777 8.24231 5.13509 8.12807 5.21931 8.04384L7.59768 5.66548C7.76487 5.49829 8.03306 5.48936 8.211 5.64506L12.1591 9.09964C12.2963 9.21974 12.4926 9.24491 12.6557 9.16335L14.2299 8.37624C14.4518 8.26531 14.7216 8.35524 14.8325 8.5771L17.6751 14.2623C17.8244 14.5609 17.6072 14.9122 17.2734 14.9122H5.53689C5.28885 14.9122 5.08777 14.7112 5.08777 14.4631V8.36142Z" fill="#002FA7"/>
</svg>
