<svg width="20" height="20" viewBox="0 0 20 20" fill="none" xmlns="http://www.w3.org/2000/svg">
<path d="M6.66659 10.8333V15.8333C6.66659 16.0544 6.57879 16.2663 6.42251 16.4226C6.26623 16.5789 6.05427 16.6667 5.83325 16.6667H4.16659C3.94557 16.6667 3.73361 16.5789 3.57733 16.4226C3.42105 16.2663 3.33325 16.0544 3.33325 15.8333V10.8333C3.33325 10.6123 3.42105 10.4004 3.57733 10.2441C3.73361 10.0878 3.94557 10 4.16659 10H5.83325C6.05427 10 6.26623 10.0878 6.42251 10.2441C6.57879 10.4004 6.66659 10.6123 6.66659 10.8333ZM10.8333 3.33334H9.16659C8.94557 3.33334 8.73361 3.42114 8.57733 3.57742C8.42105 3.7337 8.33325 3.94566 8.33325 4.16668V15.8333C8.33325 16.0544 8.42105 16.2663 8.57733 16.4226C8.73361 16.5789 8.94557 16.6667 9.16659 16.6667H10.8333C11.0543 16.6667 11.2662 16.5789 11.4225 16.4226C11.5788 16.2663 11.6666 16.0544 11.6666 15.8333V4.16668C11.6666 3.94566 11.5788 3.7337 11.4225 3.57742C11.2662 3.42114 11.0543 3.33334 10.8333 3.33334ZM15.8333 6.66668H14.1666C13.9456 6.66668 13.7336 6.75448 13.5773 6.91076C13.4211 7.06704 13.3333 7.279 13.3333 7.50001V15.8333C13.3333 16.0544 13.4211 16.2663 13.5773 16.4226C13.7336 16.5789 13.9456 16.6667 14.1666 16.6667H15.8333C16.0543 16.6667 16.2662 16.5789 16.4225 16.4226C16.5788 16.2663 16.6666 16.0544 16.6666 15.8333V7.50001C16.6666 7.279 16.5788 7.06704 16.4225 6.91076C16.2662 6.75448 16.0543 6.66668 15.8333 6.66668Z" fill="currentColor"/>
</svg>
