<svg width="20" height="20" viewBox="0 0 20 20" fill="none" xmlns="http://www.w3.org/2000/svg">
<path d="M6.66671 10.8334V15.8334C6.66671 16.0544 6.57891 16.2664 6.42263 16.4226C6.26635 16.5789 6.05439 16.6667 5.83337 16.6667H4.16671C3.94569 16.6667 3.73373 16.5789 3.57745 16.4226C3.42117 16.2664 3.33337 16.0544 3.33337 15.8334V10.8334C3.33337 10.6124 3.42117 10.4004 3.57745 10.2441C3.73373 10.0878 3.94569 10 4.16671 10H5.83337C6.05439 10 6.26635 10.0878 6.42263 10.2441C6.57891 10.4004 6.66671 10.6124 6.66671 10.8334ZM10.8334 3.33337H9.16671C8.9457 3.33337 8.73373 3.42117 8.57745 3.57745C8.42117 3.73373 8.33338 3.94569 8.33338 4.16671V15.8334C8.33338 16.0544 8.42117 16.2664 8.57745 16.4226C8.73373 16.5789 8.9457 16.6667 9.16671 16.6667H10.8334C11.0544 16.6667 11.2664 16.5789 11.4226 16.4226C11.5789 16.2664 11.6667 16.0544 11.6667 15.8334V4.16671C11.6667 3.94569 11.5789 3.73373 11.4226 3.57745C11.2664 3.42117 11.0544 3.33337 10.8334 3.33337ZM15.8334 6.66671H14.1667C13.9457 6.66671 13.7337 6.75451 13.5775 6.91079C13.4212 7.06707 13.3334 7.27903 13.3334 7.50004V15.8334C13.3334 16.0544 13.4212 16.2664 13.5775 16.4226C13.7337 16.5789 13.9457 16.6667 14.1667 16.6667H15.8334C16.0544 16.6667 16.2664 16.5789 16.4226 16.4226C16.5789 16.2664 16.6667 16.0544 16.6667 15.8334V7.50004C16.6667 7.27903 16.5789 7.06707 16.4226 6.91079C16.2664 6.75451 16.0544 6.66671 15.8334 6.66671Z" fill="currentColor"/>
</svg>
