<svg width="20" height="20" viewBox="0 0 20 20" fill="none" xmlns="http://www.w3.org/2000/svg">
<path fill-rule="evenodd" clip-rule="evenodd" d="M6.5575 4.24652C6.35054 4.20053 6.13661 4.28648 6.01901 4.46287L3.06902 8.88763C2.94321 9.07635 2.9942 9.33132 3.18291 9.45714L3.78088 9.85581C3.9696 9.98162 4.22458 9.93063 4.35039 9.74192L6.71502 6.19516C6.83262 6.01877 7.04656 5.93281 7.25351 5.9788L11.1254 6.83924C11.2659 6.87048 11.4131 6.84125 11.5311 6.75867L16.4209 3.33596C16.6067 3.2059 16.6519 2.94983 16.5218 2.76402L16.1097 2.17524C15.9796 1.98943 15.7235 1.94423 15.5377 2.0743L11.2034 5.10824C11.0854 5.19081 10.9382 5.22004 10.7976 5.1888L6.5575 4.24652ZM4.16613 17.5278H5.87729C6.1042 17.5278 6.32182 17.4376 6.48227 17.2772C6.64272 17.1167 6.73286 16.8991 6.73286 16.6722V13.5921C6.73286 13.3652 6.64272 13.1476 6.48227 12.9871C6.32182 12.8267 6.1042 12.7365 5.87729 12.7365H4.16613C3.93922 12.7365 3.7216 12.8267 3.56115 12.9871C3.40069 13.1476 3.31055 13.3652 3.31055 13.5921V16.6722C3.31055 16.8991 3.40069 17.1167 3.56115 17.2772C3.7216 17.4376 3.93922 17.5278 4.16613 17.5278ZM11.8663 11.4198V16.6722C11.8663 16.8991 11.7762 17.1167 11.6157 17.2772C11.4553 17.4376 11.2377 17.5278 11.0108 17.5278H9.2996C9.07268 17.5278 8.85506 17.4376 8.69461 17.2772C8.53416 17.1167 8.44402 16.8991 8.44402 16.6722V10.7948C8.44402 10.5679 8.53416 10.3503 8.69461 10.1898C8.85506 10.0294 9.07268 9.93923 9.2996 9.93923H11.0108C11.2377 9.93923 11.4553 10.0294 11.6157 10.1898C11.7762 10.3503 11.8663 11.1929 11.8663 11.4198ZM16.9998 7.3725V16.6722C16.9998 16.8991 16.9097 17.1167 16.7492 17.2772C16.5888 17.4376 16.3711 17.5278 16.1442 17.5278H14.4331C14.2061 17.5278 13.9885 17.4376 13.8281 17.2772C13.6676 17.1167 13.5775 16.8991 13.5775 16.6722V7.3725C13.5775 7.14558 13.6676 6.92796 13.8281 6.76751C13.9885 6.60706 14.2061 6.51692 14.4331 6.51692H16.1442C16.3711 6.51692 16.5888 6.60706 16.7492 6.76751C16.9097 6.92796 16.9998 7.14558 16.9998 7.3725Z" fill="currentColor"/>
</svg>
