<svg width="20" height="20" viewBox="0 0 20 20" fill="none" xmlns="http://www.w3.org/2000/svg">
<path d="M8.45837 7.86665C8.49578 7.82679 8.54096 7.79502 8.59113 7.7733C8.64129 7.75158 8.69538 7.74038 8.75004 7.74038C8.8047 7.74038 8.85879 7.75158 8.90895 7.7733C8.95912 7.79502 9.0043 7.82679 9.04171 7.86665L11.25 10.075L17.0334 4.29165C17.0721 4.25259 17.1182 4.22159 17.169 4.20044C17.2197 4.17929 17.2742 4.1684 17.3292 4.1684C17.3842 4.1684 17.4387 4.17929 17.4894 4.20044C17.5402 4.22159 17.5863 4.25259 17.625 4.29165L18.2084 4.87498C18.2474 4.91371 18.2784 4.9598 18.2996 5.01057C18.3207 5.06135 18.3316 5.11581 18.3316 5.17081C18.3316 5.22582 18.3207 5.28028 18.2996 5.33105C18.2784 5.38183 18.2474 5.42791 18.2084 5.46665L11.5417 12.1333C11.5043 12.1732 11.4591 12.2049 11.409 12.2267C11.3588 12.2484 11.3047 12.2596 11.25 12.2596C11.1954 12.2596 11.1413 12.2484 11.0911 12.2267C11.041 12.2049 10.9958 12.1732 10.9584 12.1333L8.75004 9.92498L2.96671 15.7083C2.92797 15.7474 2.88189 15.7784 2.83111 15.7995C2.78034 15.8207 2.72588 15.8316 2.67087 15.8316C2.61587 15.8316 2.56141 15.8207 2.51063 15.7995C2.45986 15.7784 2.41377 15.7474 2.37504 15.7083L1.79171 15.125C1.75265 15.0862 1.72166 15.0402 1.7005 14.9894C1.67935 14.9386 1.66846 14.8842 1.66846 14.8291C1.66846 14.7741 1.67935 14.7197 1.7005 14.6689C1.72166 14.6181 1.75265 14.572 1.79171 14.5333L8.45837 7.86665Z" fill="currentColor"/>
</svg>
