<svg width="20" height="20" viewBox="0 0 20 20" fill="none" xmlns="http://www.w3.org/2000/svg">
<path fill-rule="evenodd" clip-rule="evenodd" d="M11.25 5.6425C11.25 5.42159 11.4291 5.2425 11.65 5.2425L16.5999 5.24251C16.8209 5.24251 16.9999 5.4216 16.9999 5.64251L16.9999 6.34251C16.9999 6.56342 16.8209 6.74251 16.5999 6.74251L13.15 6.74251C12.9291 6.74251 12.75 6.92159 12.75 7.14251L12.75 10.3425C12.75 10.5634 12.5709 10.7425 12.35 10.7425L9.14998 10.7425C8.92906 10.7425 8.74998 10.9216 8.74998 11.1425L8.74998 14.3425C8.74998 14.5634 8.57089 14.7425 8.34998 14.7425L3.39998 14.7425C3.17906 14.7425 2.99998 14.5634 2.99998 14.3425L2.99998 13.6425C2.99998 13.4216 3.17906 13.2425 3.39997 13.2425L6.84998 13.2425C7.07089 13.2425 7.24998 13.0634 7.24998 12.8425L7.24998 9.64249C7.24998 9.42157 7.42906 9.24249 7.64998 9.24249L10.85 9.24249C11.0709 9.24249 11.25 9.06341 11.25 8.84249L11.25 5.6425Z" fill="currentColor"/>
</svg>
