<svg width="20" height="20" viewBox="0 0 20 20" fill="none" xmlns="http://www.w3.org/2000/svg">
<path fill-rule="evenodd" clip-rule="evenodd" d="M3.73999 14.1218C3.73999 14.1218 3.73797 14.1233 3.73797 14.1233C3.72669 14.1213 3.64164 14.1069 2.99995 13.9999C2.30693 13.8844 2.26318 13.8767 2.26041 13.8762C2.26029 13.8762 2.26024 13.8761 2.26026 13.876L2.26058 13.8741L2.26137 13.8694L2.26411 13.8536L2.27421 13.7973C2.28305 13.7491 2.29612 13.6802 2.3137 13.5933C2.34882 13.4198 2.40206 13.1743 2.47552 12.8805C2.62176 12.2956 2.85119 11.5072 3.18278 10.7115C3.51124 9.92323 3.95778 9.08395 4.55667 8.43064C5.16163 7.7707 5.97287 7.24994 7.00015 7.24994C8.87752 7.24994 9.83511 8.52858 10.5509 9.48438C10.5674 9.50642 10.5838 9.52828 10.6 9.54996C11.3787 10.5882 11.9207 11.2499 13 11.2499C13.4727 11.2499 13.9114 11.0207 14.3377 10.5557C14.7701 10.084 15.1361 9.42327 15.4326 8.71149C15.7261 8.00723 15.9342 7.29568 16.0692 6.75555C16.1364 6.48681 16.1847 6.26361 16.216 6.109C16.2317 6.03176 16.243 5.97182 16.2503 5.93209L16.2582 5.88808L16.2599 5.87815C16.2599 5.87815 16.2619 5.87667 16.2619 5.87667C16.2732 5.87861 16.3582 5.89301 16.9999 5.99996C17.6875 6.11455 17.736 6.123 17.7394 6.12363C17.7396 6.12366 17.7397 6.12377 17.7396 6.12397L17.7393 6.12576L17.7385 6.13046L17.7358 6.14626L17.7257 6.20258C17.7169 6.25074 17.7038 6.31972 17.6862 6.40654C17.6511 6.58005 17.5979 6.8256 17.5244 7.11936C17.3782 7.70423 17.1488 8.49268 16.8173 9.28841C16.4888 10.0766 16.0423 10.9159 15.4434 11.5692C14.8385 12.2292 14.0273 12.7499 13 12.7499C11.1225 12.7499 10.1649 11.4713 9.44914 10.5155C9.43264 10.4935 9.41627 10.4716 9.40002 10.4499C8.62135 9.41166 8.0794 8.74994 7.00015 8.74994C6.52748 8.74994 6.08871 8.97917 5.66239 9.44424C5.23 9.91592 4.86398 10.5766 4.56738 11.2884C4.27391 11.9927 4.06577 12.7042 3.93071 13.2444C3.86352 13.5131 3.81518 13.7363 3.78388 13.8909C3.76824 13.9682 3.7569 14.0281 3.74961 14.0678L3.74171 14.1119L3.73999 14.1218Z" fill="currentColor"/>
</svg>
