<svg width="20" height="20" viewBox="0 0 20 20" fill="none" xmlns="http://www.w3.org/2000/svg">
<path fill-rule="evenodd" clip-rule="evenodd" d="M3.73987 14.1218C3.73987 14.1218 3.73785 14.1233 3.73784 14.1233C3.72657 14.1214 3.64152 14.107 2.99982 14C2.30681 13.8845 2.26305 13.8768 2.26029 13.8763C2.26016 13.8763 2.26012 13.8762 2.26014 13.8761L2.26046 13.8742L2.26125 13.8695L2.26398 13.8537L2.27409 13.7973C2.28292 13.7492 2.296 13.6802 2.31357 13.5934C2.3487 13.4199 2.40194 13.1743 2.47539 12.8806C2.62164 12.2957 2.85107 11.5073 3.18266 10.7115C3.51112 9.92329 3.95766 9.08401 4.55655 8.4307C5.16151 7.77076 5.97274 7.25 7.00003 7.25C8.8774 7.25 9.83498 8.52864 10.5508 9.48444C10.5673 9.50648 10.5837 9.52834 10.5999 9.55002C11.3786 10.5883 11.9206 11.25 12.9998 11.25C13.4725 11.25 13.9113 11.0208 14.3376 10.5557C14.77 10.084 15.1359 9.42333 15.4325 8.71155C15.726 8.00729 15.9341 7.29574 16.0691 6.75561C16.1363 6.48687 16.1846 6.26368 16.2159 6.10906C16.2315 6.03182 16.2429 5.97188 16.2502 5.93215L16.2581 5.88814L16.2598 5.87821C16.2598 5.87821 16.2618 5.87673 16.2618 5.87674C16.2731 5.87867 16.3581 5.89307 16.9998 6.00002C17.6874 6.11461 17.7359 6.12306 17.7393 6.12369C17.7395 6.12372 17.7395 6.12383 17.7395 6.12403L17.7392 6.12582L17.7384 6.13052L17.7357 6.14632L17.7256 6.20264C17.7167 6.25081 17.7037 6.31978 17.6861 6.4066C17.651 6.58011 17.5977 6.82566 17.5243 7.11942C17.3781 7.70429 17.1487 8.49274 16.8171 9.28847C16.4887 10.0767 16.0422 10.916 15.4433 11.5693C14.8384 12.2292 14.0271 12.75 12.9998 12.75C11.1224 12.75 10.1648 11.4713 9.44901 10.5155C9.43252 10.4935 9.41615 10.4717 9.3999 10.45C8.62123 9.41172 8.07927 8.75 7.00002 8.75C6.52735 8.75 6.08859 8.97923 5.66227 9.4443C5.22988 9.91599 4.86386 10.5767 4.56726 11.2885C4.27378 11.9928 4.06565 12.7043 3.93059 13.2444C3.86339 13.5132 3.81505 13.7364 3.78375 13.891C3.76812 13.9682 3.75677 14.0282 3.74949 14.0679L3.74159 14.1119L3.73987 14.1218Z" fill="currentColor"/>
</svg>
