<svg width="20" height="20" viewBox="0 0 20 20" fill="none" xmlns="http://www.w3.org/2000/svg">
<path d="M8.45837 7.86671C8.49578 7.82685 8.54096 7.79508 8.59113 7.77336C8.64129 7.75165 8.69538 7.74044 8.75004 7.74044C8.8047 7.74044 8.85879 7.75165 8.90895 7.77336C8.95912 7.79508 9.0043 7.82685 9.04171 7.86671L11.25 10.075L17.0334 4.29171C17.0721 4.25265 17.1182 4.22166 17.169 4.2005C17.2197 4.17935 17.2742 4.16846 17.3292 4.16846C17.3842 4.16846 17.4387 4.17935 17.4894 4.2005C17.5402 4.22166 17.5863 4.25265 17.625 4.29171L18.2084 4.87504C18.2474 4.91377 18.2784 4.95986 18.2996 5.01063C18.3207 5.06141 18.3316 5.11587 18.3316 5.17087C18.3316 5.22588 18.3207 5.28034 18.2996 5.33111C18.2784 5.38189 18.2474 5.42797 18.2084 5.46671L11.5417 12.1334C11.5043 12.1732 11.4591 12.205 11.409 12.2267C11.3588 12.2484 11.3047 12.2596 11.25 12.2596C11.1954 12.2596 11.1413 12.2484 11.0911 12.2267C11.041 12.205 10.9958 12.1732 10.9584 12.1334L8.75004 9.92504L2.96671 15.7084C2.92797 15.7474 2.88189 15.7784 2.83111 15.7996C2.78034 15.8207 2.72588 15.8316 2.67087 15.8316C2.61587 15.8316 2.56141 15.8207 2.51063 15.7996C2.45986 15.7784 2.41377 15.7474 2.37504 15.7084L1.79171 15.125C1.75265 15.0863 1.72166 15.0402 1.7005 14.9894C1.67935 14.9387 1.66846 14.8842 1.66846 14.8292C1.66846 14.7742 1.67935 14.7197 1.7005 14.669C1.72166 14.6182 1.75265 14.5721 1.79171 14.5334L8.45837 7.86671Z" fill="#002FA7"/>
</svg>
