<svg width="20" height="20" viewBox="0 0 20 20" fill="none" xmlns="http://www.w3.org/2000/svg">
<rect x="1.75" y="3.25" width="16.5" height="13.5" rx="1.25" stroke="#002FA7" stroke-width="1.5"/>
<path d="M8.08419 6H12.5441V7.14286H9.13142L8.68788 9.13726L8.71253 9.15966C8.90144 8.96545 9.13963 8.81979 9.4271 8.72269C9.72279 8.61811 10.0144 8.56583 10.3018 8.56583C10.729 8.56583 11.1109 8.63305 11.4476 8.76751C11.7844 8.89449 12.0678 9.0775 12.2977 9.31653C12.5277 9.54809 12.7002 9.82446 12.8152 10.1457C12.9384 10.4669 13 10.8142 13 11.1877C13 11.5014 12.9425 11.8263 12.8275 12.1625C12.7207 12.4911 12.5441 12.7937 12.2977 13.07C12.0595 13.3389 11.7515 13.563 11.3737 13.7423C10.9959 13.9141 10.5441 14 10.0185 14C9.59959 14 9.20945 13.9477 8.84805 13.8431C8.49487 13.746 8.18275 13.5966 7.9117 13.395C7.64066 13.1933 7.423 12.9468 7.25873 12.6555C7.10267 12.3567 7.01643 12.0093 7 11.6134H8.40452C8.44559 12.0392 8.60575 12.3679 8.88501 12.5994C9.16427 12.8235 9.53388 12.9356 9.99384 12.9356C10.2895 12.9356 10.54 12.8908 10.7454 12.8011C10.9507 12.7115 11.115 12.5882 11.2382 12.4314C11.3696 12.2745 11.46 12.0915 11.5092 11.8824C11.5667 11.6732 11.5955 11.4491 11.5955 11.2101C11.5955 10.9935 11.5626 10.788 11.4969 10.5938C11.4312 10.3922 11.3326 10.2166 11.2012 10.0672C11.0698 9.91783 10.8973 9.79832 10.6838 9.70868C10.4784 9.61905 10.2361 9.57423 9.95688 9.57423C9.66119 9.57423 9.38193 9.62652 9.1191 9.73109C8.86448 9.8282 8.67967 10.0149 8.56468 10.2913H7.16016L8.08419 6Z" fill="currentColor"/>
</svg>
