<svg width="20" height="20" viewBox="0 0 20 20" fill="none" xmlns="http://www.w3.org/2000/svg">
<path d="M10.0001 18.3332C5.39758 18.3332 1.66675 14.6024 1.66675 9.9999C1.66675 6.26823 4.11925 3.1099 7.50008 2.04823V3.81823C6.06752 4.39994 4.88158 5.46132 4.14513 6.82083C3.40868 8.18034 3.16748 9.75349 3.46279 11.2712C3.7581 12.7889 4.57157 14.1568 5.76405 15.141C6.95653 16.1252 8.45392 16.6645 10.0001 16.6666C11.3282 16.6665 12.6261 16.2699 13.7275 15.5276C14.8288 14.7853 15.6834 13.731 16.1817 12.4999H17.9517C16.8901 15.8807 13.7317 18.3332 10.0001 18.3332ZM18.2917 10.8332H9.16675V1.70823C9.44091 1.68073 9.71925 1.66656 10.0001 1.66656C14.6026 1.66656 18.3334 5.3974 18.3334 9.9999C18.3334 10.2807 18.3192 10.5591 18.2917 10.8332ZM10.8334 3.3849V9.16656H16.6151C16.4296 7.6979 15.7608 6.33268 14.7141 5.28593C13.6673 4.23918 12.3021 3.57039 10.8334 3.3849Z" fill="currentColor"/>
</svg>
