<svg width="20" height="20" viewBox="0 0 20 20" fill="none" xmlns="http://www.w3.org/2000/svg">
<path d="M9.99996 18.3333C5.39746 18.3333 1.66663 14.6025 1.66663 9.99996C1.66663 6.26829 4.11913 3.10996 7.49996 2.04829V3.81829C6.0674 4.4 4.88146 5.46138 4.14501 6.82089C3.40856 8.1804 3.16736 9.75355 3.46267 11.2712C3.75798 12.7889 4.57145 14.1569 5.76393 15.1411C6.95641 16.1252 8.4538 16.6645 9.99996 16.6666C11.3281 16.6666 12.626 16.27 13.7273 15.5277C14.8287 14.7853 15.6833 13.7311 16.1816 12.5H17.9516C16.89 15.8808 13.7316 18.3333 9.99996 18.3333ZM18.2916 10.8333H9.16663V1.70829C9.44079 1.68079 9.71913 1.66663 9.99996 1.66663C14.6025 1.66663 18.3333 5.39746 18.3333 9.99996C18.3333 10.2808 18.3191 10.5591 18.2916 10.8333ZM10.8333 3.38496V9.16663H16.615C16.4295 7.69796 15.7607 6.33274 14.7139 5.28599C13.6672 4.23924 12.302 3.57045 10.8333 3.38496Z" fill="#002FA7"/>
</svg>
