<svg width="20" height="20" viewBox="0 0 20 20" fill="none" xmlns="http://www.w3.org/2000/svg">
<path fill-rule="evenodd" clip-rule="evenodd" d="M17.5509 18C17.7989 18 18 17.7989 18 17.5509V16.7649C18 16.5169 17.7989 16.3158 17.5509 16.3158H4.13333C3.88529 16.3158 3.68421 16.1147 3.68421 15.8667V2.44912C3.68421 2.20108 3.48313 2 3.23509 2H2.44912C2.20108 2 2 2.20108 2 2.44912V17.5509C2 17.7989 2.20108 18 2.44912 18H17.5509ZM9.54675 10.4326C9.25372 10.1396 8.8563 9.97498 8.44189 9.97498C8.02749 9.97498 7.63007 10.1396 7.33704 10.4326C7.04401 10.7256 6.87939 11.1231 6.87939 11.5375C6.87939 11.9519 7.04401 12.3493 7.33704 12.6423C7.63007 12.9354 8.02749 13.1 8.44189 13.1C8.8563 13.1 9.25372 12.9354 9.54675 12.6423C9.83977 12.3493 10.0044 11.9519 10.0044 11.5375C10.0044 11.1231 9.83977 10.7256 9.54675 10.4326ZM15.3548 10.8746C15.179 10.6987 14.9405 10.6 14.6919 10.6C14.4433 10.6 14.2048 10.6987 14.029 10.8746C13.8532 11.0504 13.7544 11.2888 13.7544 11.5375C13.7544 11.7861 13.8532 12.0246 14.029 12.2004C14.2048 12.3762 14.4433 12.475 14.6919 12.475C14.9405 12.475 15.179 12.3762 15.3548 12.2004C15.5306 12.0246 15.6294 11.7861 15.6294 11.5375C15.6294 11.2888 15.5306 11.0504 15.3548 10.8746ZM13.2052 6.77415C12.8536 6.42252 12.3767 6.22498 11.8794 6.22498C11.3821 6.22498 10.9052 6.42252 10.5536 6.77415C10.2019 7.12578 10.0044 7.60269 10.0044 8.09998C10.0044 8.59726 10.2019 9.07417 10.5536 9.4258C10.9052 9.77743 11.3821 9.97498 11.8794 9.97498C12.3767 9.97498 12.8536 9.77743 13.2052 9.4258C13.5569 9.07417 13.7544 8.59726 13.7544 8.09998C13.7544 7.60269 13.5569 7.12578 13.2052 6.77415ZM6.60481 7.18081C6.42899 7.005 6.19054 6.90623 5.94189 6.90623C5.69325 6.90623 5.4548 7.005 5.27898 7.18081C5.10317 7.35663 5.00439 7.59509 5.00439 7.84373C5.00439 8.09237 5.10317 8.33082 5.27898 8.50664C5.4548 8.68245 5.69325 8.78123 5.94189 8.78123C6.19054 8.78123 6.42899 8.68245 6.60481 8.50664C6.78062 8.33082 6.87939 8.09237 6.87939 7.84373C6.87939 7.59509 6.78062 7.35663 6.60481 7.18081Z" fill="#002FA7"/>
</svg>
