<svg width="20" height="20" viewBox="0 0 20 20" fill="none" xmlns="http://www.w3.org/2000/svg">
<path fill-rule="evenodd" clip-rule="evenodd" d="M3.33317 4.16667H16.6665V10.8333H18.3332V3.33333C18.3332 3.11232 18.2454 2.90036 18.0891 2.74408C17.9328 2.5878 17.7209 2.5 17.4998 2.5H2.49984C2.27882 2.5 2.06686 2.5878 1.91058 2.74408C1.7543 2.90036 1.6665 3.11232 1.6665 3.33333V16.6667C1.6665 16.8877 1.7543 17.0996 1.91058 17.2559C2.06686 17.4122 2.27882 17.5 2.49984 17.5H11.6665V15.8333H3.33317V4.16667ZM13.3632 14.8883L14.2082 15.3767C14.1524 15.6786 14.1524 15.9881 14.2082 16.29L13.3632 16.7783L14.1965 18.2217L15.0415 17.7333C15.2749 17.9335 15.5433 18.0889 15.8332 18.1917V19.1667H17.4998V18.1917C17.7897 18.0889 18.0581 17.9335 18.2915 17.7333L19.1365 18.2217L19.9698 16.7783L19.1248 16.29C19.1806 15.9881 19.1806 15.6786 19.1248 15.3767L19.9698 14.8883L19.1365 13.445L18.2915 13.9333C18.0598 13.735 17.7923 13.5792 17.4998 13.475V12.5H15.8332V13.475C15.5407 13.5792 15.2732 13.735 15.0415 13.9333L14.1965 13.445L13.3632 14.8883ZM16.9854 16.6033C16.8843 16.6451 16.7759 16.6667 16.6665 16.6667C16.4455 16.6666 16.2336 16.5788 16.0773 16.4225C15.9211 16.2663 15.8333 16.0543 15.8333 15.8333C15.8333 15.6123 15.9211 15.4004 16.0773 15.2441C16.2336 15.0878 16.4455 15 16.6665 15C16.7759 15 16.8843 15.0215 16.9854 15.0634C17.0866 15.1053 17.1784 15.1666 17.2558 15.244C17.3332 15.3214 17.3946 15.4133 17.4365 15.5144C17.4784 15.6155 17.5 15.7239 17.5 15.8333C17.5 15.9428 17.4784 16.0512 17.4365 16.1523C17.3946 16.2534 17.3332 16.3452 17.2558 16.4226C17.1784 16.5 17.0866 16.5614 16.9854 16.6033ZM9.15991 6H10.8299V13H9.15991V6ZM7.67 8H6V13H7.67V8ZM14.0001 9H12.3301V13H14.0001V9Z" fill="#002FA7"/>
</svg>
