<svg width="20" height="20" viewBox="0 0 20 20" fill="none" xmlns="http://www.w3.org/2000/svg">
<path fill-rule="evenodd" clip-rule="evenodd" d="M3.125 3.5C2.77982 3.5 2.5 3.77982 2.5 4.125V15.875C2.5 16.2202 2.77982 16.5 3.125 16.5H16.875C17.2202 16.5 17.5 16.2202 17.5 15.875V4.125C17.5 3.77982 17.2202 3.5 16.875 3.5H3.125ZM3.75 8.5V6.25H6.875V8.5H3.75ZM8.125 8.5V6.25H11.875V8.5H8.125ZM11.875 9.75H8.125L8.125 12H11.875L11.875 9.75ZM13.125 12L13.125 9.75H16.25V12H13.125ZM11.875 13.25H8.125V15.25H11.875V13.25ZM13.125 15.25V13.25H16.25V15.25H13.125ZM13.125 8.5V6.25H16.25V8.5H13.125ZM3.75 9.75H6.875L6.875 12H3.75V9.75ZM3.75 13.25H6.875V15.25H3.75V13.25Z" fill="currentColor"/>
</svg>
