<svg width="20" height="20" viewBox="0 0 20 20" fill="none" xmlns="http://www.w3.org/2000/svg">
<path fill-rule="evenodd" clip-rule="evenodd" d="M2.5 3.125C2.5 2.77982 2.77982 2.5 3.125 2.5H16.875C17.2202 2.5 17.5 2.77982 17.5 3.125V16.875C17.5 17.2202 17.2202 17.5 16.875 17.5H3.125C2.77982 17.5 2.5 17.2202 2.5 16.875V13.125V11.875V3.125ZM3.75 13.125V16.25H6.875V13.125H3.75ZM11.875 16.25H8.125V13.125H11.875V16.25ZM13.125 16.25H16.25V13.125H13.125V16.25ZM13.125 11.875H16.25V8.125H13.125L13.125 11.875ZM11.875 8.125H8.125L8.125 11.875H11.875L11.875 8.125ZM11.875 6.875H8.125V3.75H11.875V6.875ZM13.125 6.875H16.25V3.75H13.125V6.875ZM6.875 6.875V3.75H3.75V6.875H6.875ZM6.875 11.875L6.875 8.125H3.75V11.875H6.875Z" fill="#002FA7"/>
</svg>
