<svg width="54" height="54" viewBox="0 0 54 54" fill="none" xmlns="http://www.w3.org/2000/svg">
<rect width="54" height="54" rx="8" fill="#F5F7FB"/>
<path d="M8.27588 13.2495V14.0405C8.04443 13.9058 7.81152 13.8047 7.57715 13.7373C7.34277 13.6699 7.104 13.6362 6.86084 13.6362C6.49463 13.6362 6.2207 13.6963 6.03906 13.8164C5.86035 13.9336 5.771 14.1138 5.771 14.3569C5.771 14.5767 5.83838 14.7407 5.97314 14.8491C6.10791 14.9575 6.44336 15.063 6.97949 15.1655L7.30469 15.2271C7.70605 15.3032 8.00928 15.4556 8.21436 15.6841C8.42236 15.9126 8.52637 16.21 8.52637 16.5762C8.52637 17.0625 8.35352 17.4434 8.00781 17.7188C7.66211 17.9912 7.18164 18.1274 6.56641 18.1274C6.32324 18.1274 6.06836 18.1011 5.80176 18.0483C5.53516 17.9985 5.24658 17.9224 4.93604 17.8198V16.9849C5.23779 17.1401 5.52637 17.2573 5.80176 17.3364C6.07715 17.4126 6.33789 17.4507 6.58398 17.4507C6.94141 17.4507 7.21826 17.3789 7.41455 17.2354C7.61084 17.0889 7.70898 16.8853 7.70898 16.6245C7.70898 16.2495 7.3501 15.9902 6.63232 15.8467L6.59717 15.8379L6.29395 15.7764C5.82812 15.6855 5.48828 15.5332 5.27441 15.3193C5.06055 15.1025 4.95361 14.8081 4.95361 14.436C4.95361 13.9644 5.11328 13.6011 5.43262 13.3462C5.75195 13.0884 6.20752 12.9595 6.79932 12.9595C7.06299 12.9595 7.31641 12.9844 7.55957 13.0342C7.80273 13.0811 8.0415 13.1528 8.27588 13.2495ZM14.3096 15.3369V15.7324H10.8071V15.7588C10.8071 16.2949 10.9463 16.7095 11.2246 17.0024C11.5059 17.2954 11.9014 17.4419 12.4111 17.4419C12.6689 17.4419 12.9385 17.4009 13.2197 17.3188C13.501 17.2368 13.8013 17.1123 14.1206 16.9453V17.7495C13.813 17.8755 13.5156 17.9692 13.2285 18.0308C12.9443 18.0952 12.6689 18.1274 12.4023 18.1274C11.6377 18.1274 11.04 17.8989 10.6094 17.4419C10.1787 16.9819 9.96338 16.3491 9.96338 15.5435C9.96338 14.7583 10.1743 14.1313 10.5962 13.6626C11.0181 13.1938 11.5806 12.9595 12.2837 12.9595C12.9106 12.9595 13.4043 13.1719 13.7646 13.5967C14.1279 14.0215 14.3096 14.6016 14.3096 15.3369ZM13.501 15.0996C13.4893 14.625 13.3765 14.2646 13.1626 14.0186C12.9517 13.7695 12.647 13.645 12.2485 13.645C11.8589 13.645 11.5381 13.7739 11.2861 14.0317C11.0342 14.2896 10.8848 14.647 10.8379 15.104L13.501 15.0996ZM17.6538 16.2158C17.6538 16.5791 17.7197 16.853 17.8516 17.0376C17.9863 17.2222 18.1841 17.3145 18.4448 17.3145H19.3896V18H18.3657C17.8823 18 17.5073 17.8447 17.2407 17.5342C16.9771 17.2236 16.8452 16.7842 16.8452 16.2158V11.7466H15.5488V11.1138H17.6538V16.2158ZM25.1553 15.3369V15.7324H21.6528V15.7588C21.6528 16.2949 21.792 16.7095 22.0703 17.0024C22.3516 17.2954 22.7471 17.4419 23.2568 17.4419C23.5146 17.4419 23.7842 17.4009 24.0654 17.3188C24.3467 17.2368 24.647 17.1123 24.9663 16.9453V17.7495C24.6587 17.8755 24.3613 17.9692 24.0742 18.0308C23.79 18.0952 23.5146 18.1274 23.248 18.1274C22.4834 18.1274 21.8857 17.8989 21.4551 17.4419C21.0244 16.9819 20.8091 16.3491 20.8091 15.5435C20.8091 14.7583 21.02 14.1313 21.4419 13.6626C21.8638 13.1938 22.4263 12.9595 23.1294 12.9595C23.7563 12.9595 24.25 13.1719 24.6104 13.5967C24.9736 14.0215 25.1553 14.6016 25.1553 15.3369ZM24.3467 15.0996C24.335 14.625 24.2222 14.2646 24.0083 14.0186C23.7974 13.7695 23.4927 13.645 23.0942 13.645C22.7046 13.645 22.3838 13.7739 22.1318 14.0317C21.8799 14.2896 21.7305 14.647 21.6836 15.104L24.3467 15.0996ZM30.354 17.7495C30.1372 17.8755 29.9131 17.9692 29.6816 18.0308C29.4531 18.0952 29.2188 18.1274 28.9785 18.1274C28.2168 18.1274 27.6206 17.8989 27.1899 17.4419C26.7622 16.9849 26.5483 16.3521 26.5483 15.5435C26.5483 14.7349 26.7622 14.1021 27.1899 13.645C27.6206 13.188 28.2168 12.9595 28.9785 12.9595C29.2158 12.9595 29.4473 12.9902 29.6729 13.0518C29.8984 13.1133 30.1255 13.2085 30.354 13.3374V14.1855C30.1401 13.9951 29.9248 13.8574 29.708 13.7725C29.4941 13.6875 29.251 13.645 28.9785 13.645C28.4717 13.645 28.082 13.8091 27.8096 14.1372C27.5371 14.4653 27.4009 14.9341 27.4009 15.5435C27.4009 16.1499 27.5371 16.6187 27.8096 16.9497C28.085 17.2778 28.4746 17.4419 28.9785 17.4419C29.2598 17.4419 29.5117 17.3994 29.7344 17.3145C29.957 17.2266 30.1636 17.0918 30.354 16.9102V17.7495ZM33.8125 11.6807V13.0781H35.6494V13.7065H33.8125V16.3784C33.8125 16.7417 33.8813 16.9951 34.019 17.1387C34.1567 17.2822 34.397 17.354 34.7397 17.354H35.6494V18H34.6606C34.0542 18 33.6265 17.8784 33.3774 17.6353C33.1284 17.3921 33.0039 16.9731 33.0039 16.3784V13.7065H31.6899V13.0781H33.0039V11.6807H33.8125Z" fill="#1480BD"/>
<path d="M45.0449 15.5259H44.7769C44.3052 15.5259 43.9492 15.6094 43.709 15.7764C43.4717 15.9404 43.353 16.1865 43.353 16.5146C43.353 16.8105 43.4424 17.0405 43.6211 17.2046C43.7998 17.3687 44.0474 17.4507 44.3638 17.4507C44.8091 17.4507 45.1592 17.2969 45.4141 16.9893C45.6689 16.6787 45.7979 16.251 45.8008 15.7061V15.5259H45.0449ZM46.6138 15.1919V18H45.8008V17.2705C45.6279 17.5635 45.4097 17.7803 45.146 17.9209C44.8853 18.0586 44.5674 18.1274 44.1924 18.1274C43.6914 18.1274 43.2915 17.9868 42.9927 17.7056C42.6938 17.4214 42.5444 17.042 42.5444 16.5674C42.5444 16.0195 42.7275 15.6035 43.0938 15.3193C43.4629 15.0352 44.0034 14.8931 44.7153 14.8931H45.8008V14.7656C45.7979 14.373 45.6982 14.0889 45.502 13.9131C45.3057 13.7344 44.9922 13.645 44.5615 13.645C44.2861 13.645 44.0078 13.6846 43.7266 13.7637C43.4453 13.8428 43.1714 13.9585 42.9048 14.1108V13.3022C43.2036 13.188 43.4893 13.103 43.7617 13.0474C44.0371 12.9888 44.3037 12.9595 44.5615 12.9595C44.9688 12.9595 45.3159 13.0195 45.603 13.1396C45.8931 13.2598 46.1274 13.4399 46.3062 13.6802C46.4175 13.8267 46.4966 14.0083 46.5435 14.2251C46.5903 14.439 46.6138 14.7612 46.6138 15.1919ZM35.1484 27.5435C35.1484 26.9165 35.0488 26.4434 34.8496 26.124C34.6504 25.8047 34.356 25.645 33.9663 25.645C33.5737 25.645 33.2764 25.8062 33.0742 26.1284C32.8721 26.4478 32.771 26.9194 32.771 27.5435C32.771 28.1646 32.8721 28.6362 33.0742 28.9585C33.2764 29.2808 33.5737 29.4419 33.9663 29.4419C34.356 29.4419 34.6504 29.2822 34.8496 28.9629C35.0488 28.6436 35.1484 28.1704 35.1484 27.5435ZM32.771 25.7065C32.8999 25.4663 33.0771 25.2817 33.3027 25.1528C33.5312 25.0239 33.7949 24.9595 34.0938 24.9595C34.6855 24.9595 35.1514 25.188 35.4912 25.645C35.8311 26.0991 36.001 26.7261 36.001 27.5259C36.001 28.3374 35.8296 28.9746 35.4868 29.4375C35.147 29.8975 34.6797 30.1274 34.085 30.1274C33.792 30.1274 33.5327 30.0645 33.3071 29.9385C33.0845 29.8096 32.9058 29.6235 32.771 29.3804V30H31.9624V23.1621H32.771V25.7065ZM41.1997 41.7495C40.9829 41.8755 40.7588 41.9692 40.5273 42.0308C40.2988 42.0952 40.0645 42.1274 39.8242 42.1274C39.0625 42.1274 38.4663 41.8989 38.0356 41.4419C37.6079 40.9849 37.394 40.3521 37.394 39.5435C37.394 38.7349 37.6079 38.1021 38.0356 37.645C38.4663 37.188 39.0625 36.9595 39.8242 36.9595C40.0615 36.9595 40.293 36.9902 40.5186 37.0518C40.7441 37.1133 40.9712 37.2085 41.1997 37.3374V38.1855C40.9858 37.9951 40.7705 37.8574 40.5537 37.7725C40.3398 37.6875 40.0967 37.645 39.8242 37.645C39.3174 37.645 38.9277 37.8091 38.6553 38.1372C38.3828 38.4653 38.2466 38.9341 38.2466 39.5435C38.2466 40.1499 38.3828 40.6187 38.6553 40.9497C38.9307 41.2778 39.3203 41.4419 39.8242 41.4419C40.1055 41.4419 40.3574 41.3994 40.5801 41.3145C40.8027 41.2266 41.0093 41.0918 41.1997 40.9102V41.7495Z" fill="#333333"/>
<path d="M8.67139 23.1621V23.8345H7.75293C7.46289 23.8345 7.26074 23.8945 7.14648 24.0146C7.03516 24.1318 6.97949 24.3413 6.97949 24.6431V25.0781H8.67139V25.7065H6.97949V30H6.1709V25.7065H4.85693V25.0781H6.1709V24.7354C6.1709 24.1963 6.29395 23.7993 6.54004 23.5444C6.78906 23.2896 7.17578 23.1621 7.7002 23.1621H8.67139ZM14.4985 26.0933C14.3257 25.9585 14.1499 25.8604 13.9712 25.7988C13.7925 25.7373 13.5962 25.7065 13.3823 25.7065C12.8784 25.7065 12.4932 25.8647 12.2266 26.1812C11.96 26.4976 11.8267 26.9546 11.8267 27.5522V30H11.0137V25.0781H11.8267V26.0405C11.9614 25.6919 12.168 25.4253 12.4463 25.2407C12.7275 25.0532 13.0601 24.9595 13.4438 24.9595C13.6431 24.9595 13.8291 24.9844 14.002 25.0342C14.1748 25.084 14.3403 25.1616 14.4985 25.2671V26.0933ZM17.5527 25.645C17.1426 25.645 16.832 25.8047 16.6211 26.124C16.4102 26.4434 16.3047 26.9165 16.3047 27.5435C16.3047 28.1675 16.4102 28.6406 16.6211 28.9629C16.832 29.2822 17.1426 29.4419 17.5527 29.4419C17.9658 29.4419 18.2778 29.2822 18.4888 28.9629C18.6997 28.6406 18.8052 28.1675 18.8052 27.5435C18.8052 26.9165 18.6997 26.4434 18.4888 26.124C18.2778 25.8047 17.9658 25.645 17.5527 25.645ZM17.5527 24.9595C18.2354 24.9595 18.7568 25.1807 19.1172 25.623C19.4805 26.0654 19.6621 26.7056 19.6621 27.5435C19.6621 28.3843 19.4819 29.0259 19.1216 29.4683C18.7612 29.9077 18.2383 30.1274 17.5527 30.1274C16.8701 30.1274 16.3486 29.9077 15.9883 29.4683C15.6279 29.0259 15.4478 28.3843 15.4478 27.5435C15.4478 26.7056 15.6279 26.0654 15.9883 25.623C16.3486 25.1807 16.8701 24.9595 17.5527 24.9595ZM23.2393 25.5791C23.3389 25.3682 23.4648 25.2129 23.6172 25.1133C23.7725 25.0107 23.9585 24.9595 24.1753 24.9595C24.5708 24.9595 24.8491 25.1133 25.0103 25.4209C25.1743 25.7256 25.2563 26.3013 25.2563 27.1479V30H24.5181V27.1831C24.5181 26.4888 24.4785 26.0581 24.3994 25.8911C24.3232 25.7212 24.1826 25.6362 23.9775 25.6362C23.7432 25.6362 23.582 25.7271 23.4941 25.9087C23.4092 26.0874 23.3667 26.5122 23.3667 27.1831V30H22.6284V27.1831C22.6284 26.48 22.5859 26.0464 22.501 25.8823C22.4189 25.7183 22.2695 25.6362 22.0527 25.6362C21.8389 25.6362 21.6895 25.7271 21.6045 25.9087C21.5225 26.0874 21.4814 26.5122 21.4814 27.1831V30H20.7476V25.0781H21.4814V25.5C21.5781 25.3242 21.6982 25.1909 21.8418 25.1001C21.9883 25.0063 22.1538 24.9595 22.3384 24.9595C22.561 24.9595 22.7456 25.0107 22.8921 25.1133C23.0415 25.2158 23.1572 25.3711 23.2393 25.5791ZM4 37.0781H4.7998L5.65674 41.0552L6.35986 38.5151H7.0498L7.76172 41.0552L8.61865 37.0781H9.41846L8.26709 42H7.49365L6.70703 39.3018L5.9248 42H5.15137L4 37.0781ZM14.0415 38.9502V42H13.2285V38.9502C13.2285 38.5078 13.1509 38.1826 12.9956 37.9746C12.8403 37.7666 12.5972 37.6626 12.2661 37.6626C11.8882 37.6626 11.5967 37.7974 11.3916 38.0669C11.1895 38.3335 11.0884 38.7173 11.0884 39.2183V42H10.2798V35.1621H11.0884V37.8164C11.2319 37.5352 11.4268 37.3228 11.6729 37.1792C11.9189 37.0327 12.2104 36.9595 12.5474 36.9595C13.0483 36.9595 13.4219 37.125 13.668 37.4561C13.917 37.7842 14.0415 38.2822 14.0415 38.9502ZM19.7324 39.3369V39.7324H16.23V39.7588C16.23 40.2949 16.3691 40.7095 16.6475 41.0024C16.9287 41.2954 17.3242 41.4419 17.834 41.4419C18.0918 41.4419 18.3613 41.4009 18.6426 41.3188C18.9238 41.2368 19.2241 41.1123 19.5435 40.9453V41.7495C19.2358 41.8755 18.9385 41.9692 18.6514 42.0308C18.3672 42.0952 18.0918 42.1274 17.8252 42.1274C17.0605 42.1274 16.4629 41.8989 16.0322 41.4419C15.6016 40.9819 15.3862 40.3491 15.3862 39.5435C15.3862 38.7583 15.5972 38.1313 16.019 37.6626C16.4409 37.1938 17.0034 36.9595 17.7065 36.9595C18.3335 36.9595 18.8271 37.1719 19.1875 37.5967C19.5508 38.0215 19.7324 38.6016 19.7324 39.3369ZM18.9238 39.0996C18.9121 38.625 18.7993 38.2646 18.5854 38.0186C18.3745 37.7695 18.0698 37.645 17.6714 37.645C17.2817 37.645 16.9609 37.7739 16.709 38.0317C16.457 38.2896 16.3076 38.647 16.2607 39.104L18.9238 39.0996ZM25.3442 38.0933C25.1714 37.9585 24.9956 37.8604 24.8169 37.7988C24.6382 37.7373 24.4419 37.7065 24.228 37.7065C23.7241 37.7065 23.3389 37.8647 23.0723 38.1812C22.8057 38.4976 22.6724 38.9546 22.6724 39.5522V42H21.8594V37.0781H22.6724V38.0405C22.8071 37.6919 23.0137 37.4253 23.292 37.2407C23.5732 37.0532 23.9058 36.9595 24.2896 36.9595C24.4888 36.9595 24.6748 36.9844 24.8477 37.0342C25.0205 37.084 25.186 37.1616 25.3442 37.2671V38.0933ZM30.5781 39.3369V39.7324H27.0757V39.7588C27.0757 40.2949 27.2148 40.7095 27.4932 41.0024C27.7744 41.2954 28.1699 41.4419 28.6797 41.4419C28.9375 41.4419 29.207 41.4009 29.4883 41.3188C29.7695 41.2368 30.0698 41.1123 30.3892 40.9453V41.7495C30.0815 41.8755 29.7842 41.9692 29.4971 42.0308C29.2129 42.0952 28.9375 42.1274 28.6709 42.1274C27.9062 42.1274 27.3086 41.8989 26.8779 41.4419C26.4473 40.9819 26.2319 40.3491 26.2319 39.5435C26.2319 38.7583 26.4429 38.1313 26.8647 37.6626C27.2866 37.1938 27.8491 36.9595 28.5522 36.9595C29.1792 36.9595 29.6729 37.1719 30.0332 37.5967C30.3965 38.0215 30.5781 38.6016 30.5781 39.3369ZM29.7695 39.0996C29.7578 38.625 29.645 38.2646 29.4312 38.0186C29.2202 37.7695 28.9155 37.645 28.5171 37.645C28.1274 37.645 27.8066 37.7739 27.5547 38.0317C27.3027 38.2896 27.1533 38.647 27.1064 39.104L29.7695 39.0996Z" fill="#1480BD"/>
</svg>
