<svg width="20" height="20" viewBox="0 0 20 20" fill="none"
  xmlns="http://www.w3.org/2000/svg">
  <path d="M15.8334 9.58329V10.4166C15.8334 10.4713 15.8226 10.5255 15.8017 10.5761C15.7808 10.6266 15.7501 10.6726 15.7114 10.7113C15.6727 10.7499 15.6268 10.7806 15.5762 10.8016C15.5256 10.8225 15.4715 10.8333 15.4167 10.8333H10.8334V15.4166C10.8334 15.4713 10.8226 15.5255 10.8017 15.5761C10.7808 15.6266 10.7501 15.6726 10.7114 15.7112C10.6727 15.7499 10.6268 15.7806 10.5762 15.8016C10.5256 15.8225 10.4715 15.8333 10.4167 15.8333H9.58341C9.5287 15.8333 9.47452 15.8225 9.42396 15.8016C9.37341 15.7806 9.32748 15.7499 9.28879 15.7112C9.2501 15.6726 9.2194 15.6266 9.19846 15.5761C9.17753 15.5255 9.16675 15.4713 9.16675 15.4166V10.8333H4.58341C4.5287 10.8333 4.47452 10.8225 4.42396 10.8016C4.37341 10.7806 4.32748 10.7499 4.28879 10.7113C4.2501 10.6726 4.2194 10.6266 4.19846 10.5761C4.17753 10.5255 4.16675 10.4713 4.16675 10.4166V9.58329C4.16675 9.52857 4.17753 9.47439 4.19846 9.42384C4.2194 9.37329 4.2501 9.32735 4.28879 9.28866C4.32748 9.24997 4.37341 9.21928 4.42396 9.19834C4.47452 9.1774 4.5287 9.16662 4.58341 9.16662H9.16675V4.58329C9.16675 4.52858 9.17753 4.47439 9.19846 4.42384C9.2194 4.37329 9.2501 4.32736 9.28879 4.28866C9.32748 4.24997 9.37341 4.21928 9.42396 4.19834C9.47452 4.1774 9.5287 4.16663 9.58341 4.16663H10.4167C10.4715 4.16663 10.5256 4.1774 10.5762 4.19834C10.6268 4.21928 10.6727 4.24997 10.7114 4.28866C10.7501 4.32736 10.7808 4.37329 10.8017 4.42384C10.8226 4.47439 10.8334 4.52858 10.8334 4.58329V9.16662H15.4167C15.4715 9.16662 15.5256 9.1774 15.5762 9.19834C15.6268 9.21928 15.6727 9.24997 15.7114 9.28866C15.7501 9.32735 15.7808 9.37329 15.8017 9.42384C15.8226 9.47439 15.8334 9.52857 15.8334 9.58329Z" fill="currentColor"/>
</svg>
