<svg width="20" height="20" viewBox="0 0 20 20" fill="none"
  xmlns="http://www.w3.org/2000/svg">
  <path d="M17.5 3.33325H12.5C12.026 3.33489 11.5579 3.43757 11.1268 3.63444C10.6957 3.83131 10.3116 4.11784 9.99996 4.47492C9.68836 4.11784 9.3042 3.83131 8.8731 3.63444C8.442 3.43757 7.97388 3.33489 7.49996 3.33325H2.49996C2.27895 3.33325 2.06698 3.42105 1.9107 3.57733C1.75442 3.73361 1.66663 3.94557 1.66663 4.16659V14.9999C1.66663 15.2209 1.75442 15.4329 1.9107 15.5892C2.06698 15.7455 2.27895 15.8333 2.49996 15.8333H7.15829C7.37691 15.8342 7.58641 15.921 7.74163 16.0749L8.09163 16.4249C8.24684 16.5789 8.45634 16.6657 8.67496 16.6666H11.325C11.5436 16.6657 11.7531 16.5789 11.9083 16.4249L12.2583 16.0749C12.4135 15.921 12.623 15.8342 12.8416 15.8333H17.5C17.721 15.8333 17.9329 15.7455 18.0892 15.5892C18.2455 15.4329 18.3333 15.2209 18.3333 14.9999V4.16659C18.3333 3.94557 18.2455 3.73361 18.0892 3.57733C17.9329 3.42105 17.721 3.33325 17.5 3.33325ZM9.16663 13.7833C8.66023 13.4895 8.08539 13.3343 7.49996 13.3333H3.33329V4.99992H7.49996C7.94199 4.99992 8.36591 5.17551 8.67847 5.48808C8.99103 5.80064 9.16663 6.22456 9.16663 6.66659V13.7833ZM16.6666 13.3333H12.5C11.9145 13.3343 11.3397 13.4895 10.8333 13.7833V6.66659C10.8333 6.44772 10.8764 6.23099 10.9602 6.02878C11.0439 5.82657 11.1667 5.64284 11.3214 5.48808C11.4762 5.33331 11.6599 5.21054 11.8622 5.12679C12.0644 5.04303 12.2811 4.99992 12.5 4.99992H16.6666V13.3333Z" fill="currentColor"/>
</svg>
