<svg width="20" height="20" viewBox="0 0 20 20" fill="none" xmlns="http://www.w3.org/2000/svg">
<path d="M4.55234 3.69413C6.06447 2.38385 7.99899 1.66384 9.99984 1.66663C14.6023 1.66663 18.3332 5.39747 18.3332 9.99997C18.3332 11.78 17.7748 13.43 16.8248 14.7833L14.1665 9.99997H16.6665C16.6666 8.69299 16.2825 7.4148 15.5621 6.32435C14.8416 5.23389 13.8164 4.37927 12.6142 3.86674C11.4119 3.35421 10.0854 3.20639 8.7998 3.44165C7.51417 3.67691 6.32605 4.28488 5.38317 5.18997L4.55234 3.69413ZM15.4473 16.3058C13.9352 17.6161 12.0007 18.3361 9.99984 18.3333C5.39734 18.3333 1.6665 14.6025 1.6665 9.99997C1.6665 8.21997 2.22484 6.56997 3.17484 5.21663L5.83317 9.99997H3.33317C3.33306 11.3069 3.71713 12.5851 4.43762 13.6756C5.1581 14.766 6.18323 15.6207 7.38552 16.1332C8.58781 16.6457 9.91424 16.7935 11.1999 16.5583C12.4855 16.323 13.6736 15.715 14.6165 14.81L15.4473 16.3058Z" fill="currentColor"/>
<path fill-rule="evenodd" clip-rule="evenodd" d="M9.9999 7.77351L7.17954 13.8171L5.82026 13.1828L9.32026 5.68281C9.44349 5.41876 9.70851 5.24998 9.9999 5.24998C10.2913 5.24998 10.5563 5.41876 10.6795 5.68281L14.1795 13.1828L12.8203 13.8171L9.9999 7.77351Z" fill="currentColor"/>
<path fill-rule="evenodd" clip-rule="evenodd" d="M12.5 12.25H7.5V10.75H12.5V12.25Z" fill="currentColor"/>
</svg>
