<svg width="20" height="20" viewBox="0 0 20 20" fill="none" xmlns="http://www.w3.org/2000/svg">
<path d="M16.6664 4.16659V11.2499C16.6664 11.3604 16.6225 11.4664 16.5444 11.5445C16.4662 11.6227 16.3603 11.6666 16.2498 11.6666H15.4164C15.3617 11.6666 15.3075 11.6558 15.257 11.6349C15.2064 11.6139 15.1605 11.5832 15.1218 11.5445C15.0831 11.5059 15.0524 11.4599 15.0315 11.4094C15.0105 11.3588 14.9998 11.3046 14.9998 11.2499V6.18325L4.63309 16.5416C4.59435 16.5806 4.54827 16.6116 4.4975 16.6328C4.44672 16.6539 4.39226 16.6648 4.33725 16.6648C4.28225 16.6648 4.22779 16.6539 4.17701 16.6328C4.12624 16.6116 4.08016 16.5806 4.04142 16.5416L3.45809 15.9583C3.41903 15.9195 3.38804 15.8734 3.36688 15.8227C3.34573 15.7719 3.33484 15.7174 3.33484 15.6624C3.33484 15.6074 3.34573 15.553 3.36688 15.5022C3.38804 15.4514 3.41903 15.4053 3.45809 15.3666L13.8248 4.99992H8.74975C8.63925 4.99992 8.53327 4.95602 8.45513 4.87788C8.37699 4.79974 8.33309 4.69376 8.33309 4.58325V3.74992C8.33309 3.63941 8.37699 3.53343 8.45513 3.45529C8.53327 3.37715 8.63925 3.33325 8.74975 3.33325H15.8331C15.9988 3.3334 16.1577 3.39934 16.2748 3.51659L16.4998 3.74159C16.6069 3.85717 16.6664 4.00897 16.6664 4.16659Z" fill="#002FA7"/>
</svg>
