<svg width="20" height="20" viewBox="0 0 20 20" fill="none" xmlns="http://www.w3.org/2000/svg">
<path d="M15.8333 3.33332H15V2.08332C15 2.02861 14.9892 1.97442 14.9683 1.92387C14.9473 1.87332 14.9167 1.82739 14.878 1.7887C14.8393 1.75 14.7933 1.71931 14.7428 1.69837C14.6922 1.67743 14.6381 1.66666 14.5833 1.66666H13.75C13.6953 1.66666 13.6411 1.67743 13.5905 1.69837C13.54 1.71931 13.4941 1.75 13.4554 1.7887C13.4167 1.82739 13.386 1.87332 13.3651 1.92387C13.3441 1.97442 13.3333 2.02861 13.3333 2.08332V3.33332H6.66667V2.08332C6.66667 2.02861 6.65589 1.97442 6.63495 1.92387C6.61401 1.87332 6.58332 1.82739 6.54463 1.7887C6.50594 1.75 6.46 1.71931 6.40945 1.69837C6.3589 1.67743 6.30472 1.66666 6.25 1.66666H5.41667C5.36195 1.66666 5.30777 1.67743 5.25722 1.69837C5.20666 1.71931 5.16073 1.75 5.12204 1.7887C5.08335 1.82739 5.05266 1.87332 5.03172 1.92387C5.01078 1.97442 5 2.02861 5 2.08332V3.33332H4.16667C3.72464 3.33332 3.30072 3.50892 2.98816 3.82148C2.67559 4.13404 2.5 4.55796 2.5 4.99999V15.8333C2.5 16.2754 2.67559 16.6993 2.98816 17.0118C3.30072 17.3244 3.72464 17.5 4.16667 17.5H15.8333C16.2754 17.5 16.6993 17.3244 17.0118 17.0118C17.3244 16.6993 17.5 16.2754 17.5 15.8333V4.99999C17.5 4.55796 17.3244 4.13404 17.0118 3.82148C16.6993 3.50892 16.2754 3.33332 15.8333 3.33332ZM15.8333 15.8333H4.16667V6.66666H15.8333V15.8333ZM9.58333 9.99999H10.4167C10.4714 9.99999 10.5256 9.98921 10.5761 9.96827C10.6267 9.94733 10.6726 9.91664 10.7113 9.87795C10.75 9.83926 10.7807 9.79333 10.8016 9.74277C10.8226 9.69222 10.8333 9.63804 10.8333 9.58332V8.74999C10.8333 8.69527 10.8226 8.64109 10.8016 8.59054C10.7807 8.53999 10.75 8.49405 10.7113 8.45536C10.6726 8.41667 10.6267 8.38598 10.5761 8.36504C10.5256 8.3441 10.4714 8.33332 10.4167 8.33332H9.58333C9.52862 8.33332 9.47443 8.3441 9.42388 8.36504C9.37333 8.38598 9.3274 8.41667 9.28871 8.45536C9.25001 8.49405 9.21932 8.53999 9.19838 8.59054C9.17744 8.64109 9.16667 8.69527 9.16667 8.74999V9.58332C9.16667 9.63804 9.17744 9.69222 9.19838 9.74277C9.21932 9.79333 9.25001 9.83926 9.28871 9.87795C9.3274 9.91664 9.37333 9.94733 9.42388 9.96827C9.47443 9.98921 9.52862 9.99999 9.58333 9.99999ZM12.9167 9.99999H13.75C13.8605 9.99999 13.9665 9.95609 14.0446 9.87795C14.1228 9.79981 14.1667 9.69383 14.1667 9.58332V8.74999C14.1667 8.63948 14.1228 8.5335 14.0446 8.45536C13.9665 8.37722 13.8605 8.33332 13.75 8.33332H12.9167C12.8062 8.33332 12.7002 8.37722 12.622 8.45536C12.5439 8.5335 12.5 8.63948 12.5 8.74999V9.58332C12.5 9.63804 12.5108 9.69222 12.5317 9.74277C12.5527 9.79333 12.5833 9.83926 12.622 9.87795C12.6607 9.91664 12.7067 9.94733 12.7572 9.96827C12.8078 9.98921 12.8619 9.99999 12.9167 9.99999ZM6.25 9.99999H7.08333C7.19384 9.99999 7.29982 9.95609 7.37796 9.87795C7.4561 9.79981 7.5 9.69383 7.5 9.58332V8.74999C7.5 8.63948 7.4561 8.5335 7.37796 8.45536C7.29982 8.37722 7.19384 8.33332 7.08333 8.33332H6.25C6.13949 8.33332 6.03351 8.37722 5.95537 8.45536C5.87723 8.5335 5.83333 8.63948 5.83333 8.74999V9.58332C5.83333 9.69383 5.87723 9.79981 5.95537 9.87795C6.03351 9.95609 6.13949 9.99999 6.25 9.99999ZM9.58333 13.3333H10.4167C10.4714 13.3333 10.5256 13.3225 10.5761 13.3016C10.6267 13.2807 10.6726 13.25 10.7113 13.2113C10.75 13.1726 10.7807 13.1267 10.8016 13.0761C10.8226 13.0256 10.8333 12.9714 10.8333 12.9167V12.0833C10.8333 12.0286 10.8226 11.9744 10.8016 11.9239C10.7807 11.8733 10.75 11.8274 10.7113 11.7887C10.6726 11.75 10.6267 11.7193 10.5761 11.6984C10.5256 11.6774 10.4714 11.6667 10.4167 11.6667H9.58333C9.52862 11.6667 9.47443 11.6774 9.42388 11.6984C9.37333 11.7193 9.3274 11.75 9.28871 11.7887C9.25001 11.8274 9.21932 11.8733 9.19838 11.9239C9.17744 11.9744 9.16667 12.0286 9.16667 12.0833V12.9167C9.16667 12.9714 9.17744 13.0256 9.19838 13.0761C9.21932 13.1267 9.25001 13.1726 9.28871 13.2113C9.3274 13.25 9.37333 13.2807 9.42388 13.3016C9.47443 13.3225 9.52862 13.3333 9.58333 13.3333ZM6.25 13.3333H7.08333C7.13805 13.3333 7.19223 13.3225 7.24278 13.3016C7.29334 13.2807 7.33927 13.25 7.37796 13.2113C7.41665 13.1726 7.44734 13.1267 7.46828 13.0761C7.48922 13.0256 7.5 12.9714 7.5 12.9167V12.0833C7.5 12.0286 7.48922 11.9744 7.46828 11.9239C7.44734 11.8733 7.41665 11.8274 7.37796 11.7887C7.33927 11.75 7.29334 11.7193 7.24278 11.6984C7.19223 11.6774 7.13805 11.6667 7.08333 11.6667H6.25C6.19528 11.6667 6.1411 11.6774 6.09055 11.6984C6.04 11.7193 5.99406 11.75 5.95537 11.7887C5.91668 11.8274 5.88599 11.8733 5.86505 11.9239C5.84411 11.9744 5.83333 12.0286 5.83333 12.0833V12.9167C5.83333 12.9714 5.84411 13.0256 5.86505 13.0761C5.88599 13.1267 5.91668 13.1726 5.95537 13.2113C5.99406 13.25 6.04 13.2807 6.09055 13.3016C6.1411 13.3225 6.19528 13.3333 6.25 13.3333Z" fill="#BABABA"/>
</svg>
