<svg width="20" height="20" viewBox="0 0 20 20" fill="none" xmlns="http://www.w3.org/2000/svg">
<path d="M16.5417 6.04172L7.70841 14.8751C7.66968 14.9141 7.62359 14.9451 7.57282 14.9663C7.52205 14.9874 7.46758 14.9983 7.41258 14.9983C7.35757 14.9983 7.30311 14.9874 7.25234 14.9663C7.20157 14.9451 7.15548 14.9141 7.11675 14.8751L2.62508 10.3834C2.58603 10.3447 2.55503 10.2986 2.53388 10.2478C2.51272 10.197 2.50183 10.1426 2.50183 10.0876C2.50183 10.0326 2.51272 9.97809 2.53388 9.92732C2.55503 9.87654 2.58603 9.83046 2.62508 9.79172L3.20841 9.20839C3.24715 9.16934 3.29323 9.13834 3.34401 9.11719C3.39478 9.09603 3.44924 9.08514 3.50425 9.08514C3.55925 9.08514 3.61371 9.09603 3.66449 9.11719C3.71526 9.13834 3.76135 9.16934 3.80008 9.20839L7.40841 12.8167L15.3667 4.85839C15.446 4.78152 15.5521 4.73853 15.6626 4.73853C15.773 4.73853 15.8791 4.78152 15.9584 4.85839L16.5417 5.45006C16.5808 5.48879 16.6118 5.53487 16.633 5.58565C16.6541 5.63642 16.665 5.69089 16.665 5.74589C16.665 5.8009 16.6541 5.85536 16.633 5.90613C16.6118 5.9569 16.5808 6.00299 16.5417 6.04172Z" fill="#002FA7"/>
</svg>
