<svg width="20" height="20" viewBox="0 0 20 20" fill="none" xmlns="http://www.w3.org/2000/svg">
<path d="M14.875 13.7C14.914 13.7387 14.945 13.7848 14.9662 13.8356C14.9873 13.8863 14.9982 13.9408 14.9982 13.9958C14.9982 14.0508 14.9873 14.1053 14.9662 14.156C14.945 14.2068 14.914 14.2529 14.875 14.2916L14.2916 14.875C14.2529 14.914 14.2068 14.945 14.156 14.9662C14.1053 14.9873 14.0508 14.9982 13.9958 14.9982C13.9408 14.9982 13.8863 14.9873 13.8356 14.9662C13.7848 14.945 13.7387 14.914 13.7 14.875L9.99996 11.175L6.29996 14.875C6.26122 14.914 6.21514 14.945 6.16437 14.9662C6.11359 14.9873 6.05913 14.9982 6.00412 14.9982C5.94912 14.9982 5.89466 14.9873 5.84388 14.9662C5.79311 14.945 5.74703 14.914 5.70829 14.875L5.12496 14.2916C5.0859 14.2529 5.05491 14.2068 5.03375 14.156C5.0126 14.1053 5.00171 14.0508 5.00171 13.9958C5.00171 13.9408 5.0126 13.8863 5.03375 13.8356C5.05491 13.7848 5.0859 13.7387 5.12496 13.7L8.82496 9.99996L5.12496 6.29996C5.0859 6.26122 5.05491 6.21514 5.03375 6.16437C5.0126 6.11359 5.00171 6.05913 5.00171 6.00412C5.00171 5.94912 5.0126 5.89466 5.03375 5.84389C5.05491 5.79311 5.0859 5.74703 5.12496 5.70829L5.70829 5.12496C5.74703 5.0859 5.79311 5.05491 5.84388 5.03375C5.89466 5.0126 5.94912 5.00171 6.00412 5.00171C6.05913 5.00171 6.11359 5.0126 6.16437 5.03375C6.21514 5.05491 6.26122 5.0859 6.29996 5.12496L9.99996 8.82496L13.7 5.12496C13.7387 5.0859 13.7848 5.05491 13.8356 5.03375C13.8863 5.0126 13.9408 5.00171 13.9958 5.00171C14.0508 5.00171 14.1053 5.0126 14.156 5.03375C14.2068 5.05491 14.2529 5.0859 14.2916 5.12496L14.875 5.70829C14.914 5.74703 14.945 5.79311 14.9662 5.84389C14.9873 5.89466 14.9982 5.94912 14.9982 6.00412C14.9982 6.05913 14.9873 6.11359 14.9662 6.16437C14.945 6.21514 14.914 6.26122 14.875 6.29996L11.175 9.99996L14.875 13.7Z" fill="currentColor"/>
</svg>
