<svg width="20" height="20" viewBox="0 0 20 20" fill="none" xmlns="http://www.w3.org/2000/svg">
<path d="M16.5416 6.04166L7.70829 14.875C7.66956 14.914 7.62347 14.945 7.5727 14.9662C7.52192 14.9874 7.46746 14.9982 7.41246 14.9982C7.35745 14.9982 7.30299 14.9874 7.25222 14.9662C7.20144 14.945 7.15536 14.914 7.11662 14.875L2.62496 10.3833C2.5859 10.3446 2.55491 10.2985 2.53375 10.2477C2.5126 10.197 2.50171 10.1425 2.50171 10.0875C2.50171 10.0325 2.5126 9.97803 2.53375 9.92726C2.55491 9.87648 2.5859 9.8304 2.62496 9.79166L3.20829 9.20833C3.24703 9.16928 3.29311 9.13828 3.34388 9.11713C3.39466 9.09597 3.44912 9.08508 3.50412 9.08508C3.55913 9.08508 3.61359 9.09597 3.66437 9.11713C3.71514 9.13828 3.76122 9.16928 3.79996 9.20833L7.40829 12.8167L15.3666 4.85833C15.4459 4.78145 15.552 4.73846 15.6625 4.73846C15.7729 4.73846 15.879 4.78145 15.9583 4.85833L16.5416 5.45C16.5807 5.48873 16.6117 5.53481 16.6328 5.58559C16.654 5.63636 16.6649 5.69082 16.6649 5.74583C16.6649 5.80083 16.654 5.85529 16.6328 5.90607C16.6117 5.95684 16.5807 6.00293 16.5416 6.04166Z" fill="currentColor"/>
</svg>
