<svg width="20" height="20" viewBox="0 0 20 20" fill="none" xmlns="http://www.w3.org/2000/svg">
<path d="M4.272 14V7.172L2.856 8.24L2.208 7.124L4.392 5.504H5.676V14H4.272ZM12.28 7.748C12.28 8.02 12.244 8.276 12.172 8.516C12.108 8.748 12.016 8.976 11.896 9.2C11.776 9.416 11.636 9.632 11.476 9.848C11.324 10.056 11.164 10.272 10.996 10.496L9.244 12.74H12.172V14H7.588V12.692L10.048 9.584C10.288 9.264 10.48 8.96 10.624 8.672C10.768 8.376 10.84 8.084 10.84 7.796C10.84 7.46 10.764 7.176 10.612 6.944C10.46 6.712 10.228 6.596 9.916 6.596C9.636 6.596 9.404 6.7 9.22 6.908C9.036 7.116 8.916 7.416 8.86 7.808L7.504 7.676C7.608 6.9 7.88 6.316 8.32 5.924C8.76 5.532 9.312 5.336 9.976 5.336C10.344 5.336 10.668 5.396 10.948 5.516C11.236 5.636 11.476 5.804 11.668 6.02C11.868 6.236 12.02 6.492 12.124 6.788C12.228 7.084 12.28 7.404 12.28 7.748ZM17.876 11.6C17.876 11.976 17.816 12.324 17.696 12.644C17.576 12.956 17.408 13.228 17.192 13.46C16.976 13.684 16.712 13.86 16.4 13.988C16.096 14.108 15.76 14.168 15.392 14.168C14.752 14.168 14.212 14.008 13.772 13.688C13.332 13.36 13.032 12.876 12.872 12.236L14.144 11.9C14.232 12.204 14.372 12.452 14.564 12.644C14.764 12.828 15.02 12.92 15.332 12.92C15.532 12.92 15.704 12.88 15.848 12.8C15.992 12.72 16.112 12.616 16.208 12.488C16.304 12.352 16.372 12.204 16.412 12.044C16.46 11.876 16.484 11.708 16.484 11.54C16.484 11.084 16.356 10.74 16.1 10.508C15.844 10.276 15.512 10.16 15.104 10.16H14.744V9.044H15.14C15.5 9.044 15.784 8.932 15.992 8.708C16.208 8.476 16.316 8.156 16.316 7.748C16.316 7.612 16.296 7.476 16.256 7.34C16.224 7.196 16.168 7.068 16.088 6.956C16.008 6.844 15.904 6.752 15.776 6.68C15.648 6.608 15.496 6.572 15.32 6.572C15.088 6.572 14.892 6.648 14.732 6.8C14.572 6.952 14.448 7.144 14.36 7.376L13.112 7.028C13.208 6.732 13.34 6.476 13.508 6.26C13.676 6.044 13.864 5.868 14.072 5.732C14.28 5.596 14.5 5.496 14.732 5.432C14.964 5.368 15.196 5.336 15.428 5.336C15.74 5.336 16.032 5.388 16.304 5.492C16.576 5.588 16.816 5.732 17.024 5.924C17.232 6.116 17.396 6.352 17.516 6.632C17.636 6.904 17.696 7.216 17.696 7.568C17.696 8.048 17.588 8.468 17.372 8.828C17.156 9.188 16.852 9.42 16.46 9.524V9.56C16.892 9.672 17.236 9.916 17.492 10.292C17.748 10.66 17.876 11.096 17.876 11.6Z" fill="currentColor"/>
</svg>
