<svg width="20" height="20" viewBox="0 0 20 20" fill="none" xmlns="http://www.w3.org/2000/svg">
<path d="M5.92495 14L5.50495 12.2H3.27295L2.84095 14H1.40095L3.51295 5.504H5.34895L7.42495 14H5.92495ZM4.42495 6.86H4.37695L3.45295 11.072H5.32495L4.42495 6.86ZM12.7193 11.624C12.7193 12.072 12.6433 12.448 12.4913 12.752C12.3473 13.048 12.1593 13.292 11.9273 13.484C11.7033 13.668 11.4473 13.8 11.1593 13.88C10.8793 13.96 10.6033 14 10.3313 14H7.81127V5.504H10.0673C10.3153 5.504 10.5793 5.536 10.8593 5.6C11.1393 5.656 11.3953 5.764 11.6273 5.924C11.8593 6.076 12.0513 6.292 12.2033 6.572C12.3553 6.844 12.4313 7.2 12.4313 7.64C12.4313 8.168 12.3193 8.584 12.0953 8.888C11.8713 9.192 11.6113 9.404 11.3153 9.524V9.548C11.4753 9.588 11.6353 9.656 11.7953 9.752C11.9633 9.848 12.1153 9.984 12.2513 10.16C12.3873 10.328 12.4993 10.536 12.5873 10.784C12.6753 11.024 12.7193 11.304 12.7193 11.624ZM11.1353 7.868C11.1353 7.652 11.0993 7.472 11.0273 7.328C10.9633 7.176 10.8753 7.056 10.7633 6.968C10.6593 6.872 10.5353 6.804 10.3913 6.764C10.2473 6.724 10.0993 6.704 9.94727 6.704H9.15527V9.068H9.97127C10.1153 9.068 10.2553 9.048 10.3913 9.008C10.5353 8.96 10.6593 8.888 10.7633 8.792C10.8753 8.696 10.9633 8.572 11.0273 8.42C11.0993 8.268 11.1353 8.084 11.1353 7.868ZM11.3393 11.504C11.3393 11.256 11.2993 11.048 11.2193 10.88C11.1393 10.704 11.0353 10.564 10.9073 10.46C10.7793 10.348 10.6393 10.268 10.4873 10.22C10.3353 10.172 10.1833 10.148 10.0313 10.148H9.15527V12.8H10.0673C10.2433 12.8 10.4073 12.776 10.5593 12.728C10.7113 12.672 10.8433 12.592 10.9553 12.488C11.0753 12.376 11.1673 12.24 11.2313 12.08C11.3033 11.92 11.3393 11.728 11.3393 11.504ZM18.4659 13.088C18.2419 13.424 17.9539 13.696 17.6019 13.904C17.2579 14.112 16.8219 14.216 16.2939 14.216C15.8139 14.216 15.3779 14.104 14.9859 13.88C14.6019 13.656 14.2739 13.348 14.0019 12.956C13.7379 12.556 13.5299 12.084 13.3779 11.54C13.2339 10.996 13.1619 10.4 13.1619 9.752C13.1619 9.104 13.2339 8.508 13.3779 7.964C13.5299 7.412 13.7419 6.94 14.0139 6.548C14.2859 6.148 14.6139 5.84 14.9979 5.624C15.3899 5.4 15.8219 5.288 16.2939 5.288C16.7819 5.288 17.2099 5.38 17.5779 5.564C17.9459 5.74 18.2459 5.996 18.4779 6.332L17.6499 7.34C17.3219 6.868 16.8979 6.632 16.3779 6.632C16.0899 6.632 15.8379 6.716 15.6219 6.884C15.4059 7.044 15.2259 7.264 15.0819 7.544C14.9379 7.824 14.8299 8.156 14.7579 8.54C14.6859 8.916 14.6499 9.32 14.6499 9.752C14.6499 10.176 14.6859 10.58 14.7579 10.964C14.8299 11.34 14.9379 11.668 15.0819 11.948C15.2259 12.228 15.4059 12.452 15.6219 12.62C15.8459 12.78 16.1059 12.86 16.4019 12.86C16.6819 12.86 16.9219 12.788 17.1219 12.644C17.3299 12.5 17.5019 12.324 17.6379 12.116L18.4659 13.088Z" fill="currentColor"/>
</svg>
