<svg width="20" height="20" viewBox="0 0 20 20" fill="none" xmlns="http://www.w3.org/2000/svg">
<path d="M14.2082 16.29C14.1524 15.9881 14.1524 15.6786 14.2082 15.3767L13.3632 14.8883L14.1965 13.445L15.0415 13.9333C15.2732 13.735 15.5407 13.5792 15.8332 13.475V12.5H17.4998V13.475C17.7923 13.5792 18.0598 13.735 18.2915 13.9333L19.1365 13.445L19.9698 14.8883L19.1248 15.3767C19.1806 15.6786 19.1806 15.9881 19.1248 16.29L19.9698 16.7783L19.1365 18.2217L18.2915 17.7333C18.0581 17.9335 17.7897 18.0889 17.4998 18.1917V19.1667H15.8332V18.1917C15.5433 18.0889 15.2749 17.9335 15.0415 17.7333L14.1965 18.2217L13.3632 16.7783L14.2082 16.29ZM16.6665 16.6667C16.7759 16.6667 16.8843 16.6451 16.9854 16.6033C17.0866 16.5614 17.1784 16.5 17.2558 16.4226C17.3332 16.3453 17.3946 16.2534 17.4365 16.1523C17.4784 16.0512 17.5 15.9428 17.5 15.8333C17.5 15.7239 17.4784 15.6155 17.4365 15.5144C17.3946 15.4133 17.3332 15.3214 17.2558 15.244C17.1784 15.1666 17.0866 15.1053 16.9854 15.0634C16.8843 15.0215 16.7759 15 16.6665 15C16.4455 15 16.2336 15.0878 16.0773 15.2441C15.9211 15.4004 15.8333 15.6123 15.8333 15.8333C15.8333 16.0543 15.9211 16.2663 16.0773 16.4225C16.2336 16.5788 16.4455 16.6666 16.6665 16.6667Z" fill="currentColor"/>
<path d="M0.83317 10.0001L6.72567 4.10759L7.904 5.28592L3.18984 10.0001L7.904 14.7142L6.72567 15.8926L0.83317 10.0001ZM16.8098 10.0001L12.0957 5.28592L13.274 4.10759L19.1665 10.0001L17.1666 12L16 10.8099L16.8098 10.0001Z" fill="currentColor"/>
<path d="M7.36911 10.0001L13.2616 4.10762L14.4399 5.28595L9.72577 10.0001L13 13.2743L11.869 14.5L7.36911 10.0001Z" fill="currentColor"/>
</svg>
