<svg width="20" height="20" viewBox="0 0 20 20" fill="none" xmlns="http://www.w3.org/2000/svg">
<path d="M10.0001 18.3333C5.39758 18.3333 1.66675 14.6025 1.66675 9.99999C1.66675 5.39749 5.39758 1.66666 10.0001 1.66666C14.6026 1.66666 18.3334 5.39749 18.3334 9.99999C18.3334 14.6025 14.6026 18.3333 10.0001 18.3333ZM10.0001 16.6667C11.7682 16.6667 13.4639 15.9643 14.7141 14.714C15.9644 13.4638 16.6667 11.7681 16.6667 9.99999C16.6667 8.23188 15.9644 6.53619 14.7141 5.28594C13.4639 4.0357 11.7682 3.33332 10.0001 3.33332C8.23197 3.33332 6.53628 4.0357 5.28604 5.28594C4.03579 6.53619 3.33341 8.23188 3.33341 9.99999C3.33341 11.7681 4.03579 13.4638 5.28604 14.714C6.53628 15.9643 8.23197 16.6667 10.0001 16.6667ZM10.8334 9.99999H14.1667V11.6667H9.16675V5.83332H10.8334V9.99999Z" fill="currentColor"/>
</svg>
