<svg width="20" height="20" viewBox="0 0 20 20" fill="none" xmlns="http://www.w3.org/2000/svg">
<path d="M16.4051 3.58228C16.7342 3.89873 16.9494 4.31646 17 4.77215C17 4.96202 16.9494 5.08861 16.8354 5.32912C16.7215 5.56962 15.3165 8.00001 14.8987 8.67089C14.6582 9.06329 14.5316 9.53165 14.5316 9.98734C14.5316 10.4557 14.6582 10.9114 14.8987 11.3038C15.3165 11.9747 16.7215 14.4177 16.8354 14.6582C16.9494 14.8987 17 15.0127 17 15.2025C16.9494 15.6582 16.7468 16.076 16.4177 16.3798C16.1013 16.7089 15.6835 16.9241 15.2405 16.962C15.0506 16.962 14.924 16.9114 14.6962 16.7975C14.4683 16.6835 11.9873 15.3165 11.3165 14.8987C11.2658 14.8734 11.2152 14.8354 11.1519 14.8101L7.83544 12.8481C7.91139 13.481 8.18988 14.0886 8.64556 14.5316C8.73418 14.6202 8.82279 14.6962 8.92405 14.7721C8.8481 14.8101 8.75949 14.8481 8.68355 14.8987C8.01265 15.3165 5.56962 16.7215 5.32912 16.8354C5.08861 16.9494 4.97468 17 4.77215 17C4.31646 16.9494 3.89873 16.7468 3.59494 16.4177C3.26582 16.1013 3.05063 15.6835 3 15.2278C3.01266 15.038 3.06329 14.8481 3.16456 14.6835C3.27848 14.443 4.68355 12 5.10126 11.3291C5.34176 10.9367 5.46836 10.481 5.46836 10.0127C5.46836 9.5443 5.34176 9.0886 5.10126 8.6962C4.68355 8.00001 3.26582 5.55696 3.16456 5.31646C3.06329 5.15189 3.01266 4.96202 3 4.77215C3.05063 4.31646 3.25317 3.89873 3.58228 3.58228C3.89873 3.25317 4.31646 3.05063 4.77215 3C4.96202 3.01266 5.15189 3.06329 5.32912 3.16456C5.53165 3.25317 7.31645 4.29114 8.26582 4.84811L8.48102 4.97468C8.55696 5.02532 8.62025 5.06329 8.67089 5.08861L8.77215 5.15189L12.1519 7.1519C12.076 6.3924 11.6835 5.6962 11.0759 5.22785C11.1519 5.18988 11.2405 5.15189 11.3165 5.10126C11.9873 4.68355 14.4304 3.26582 14.6709 3.16456C14.8354 3.06329 15.0253 3.01266 15.2278 3C15.6709 3.05063 16.0886 3.25317 16.4051 3.58228ZM10.1772 10.8987L10.8987 10.1772C11 10.0759 11 9.92406 10.8987 9.82279L10.1772 9.10126C10.0759 9 9.92406 9 9.82279 9.10126L9.10126 9.82279C9 9.92406 9 10.0759 9.10126 10.1772L9.82279 10.8987C9.9114 10.9873 10.0759 10.9873 10.1772 10.8987Z" stroke="#002FA7" stroke-width="1.67" stroke-linejoin="round"/>
</svg>
