<svg width="20" height="20" viewBox="0 0 20 20" fill="none"
  xmlns="http://www.w3.org/2000/svg">
  <path d="M5.81416 10.9332L7.72249 7.43408C7.23411 6.97725 6.89442 6.38407 6.74759 5.73164C6.60075 5.07922 6.65355 4.39771 6.89913 3.77568C7.1447 3.15366 7.5717 2.61988 8.12462 2.24372C8.67755 1.86756 9.33083 1.66641 9.99958 1.66641C10.6683 1.66641 11.3216 1.86756 11.8745 2.24372C12.4275 2.61988 12.8544 3.15366 13.1 3.77568C13.3456 4.39771 13.3984 5.07922 13.2516 5.73164C13.1047 6.38407 12.765 6.97725 12.2767 7.43408L14.185 10.9341C14.9716 10.7354 15.8037 10.8304 16.5252 11.2013C17.2468 11.5722 17.8083 12.1935 18.1046 12.9488C18.4008 13.7041 18.4114 14.5415 18.1344 15.3041C17.8574 16.0666 17.3117 16.702 16.5998 17.091C15.8878 17.48 15.0584 17.5961 14.267 17.4173C13.4757 17.2386 12.7766 16.7774 12.301 16.1201C11.8253 15.4629 11.6057 14.6547 11.6833 13.8471C11.7609 13.0395 12.1304 12.2879 12.7225 11.7333L10.8142 8.23325C10.2797 8.36759 9.72029 8.36759 9.18583 8.23325L7.27749 11.7324C7.86958 12.2871 8.23906 13.0387 8.31665 13.8463C8.39425 14.6538 8.17465 15.462 7.699 16.1193C7.22336 16.7765 6.52433 17.2378 5.73295 17.4165C4.94157 17.5952 4.11216 17.4792 3.40021 17.0902C2.68826 16.7011 2.14263 16.0658 1.8656 15.3032C1.58858 14.5407 1.59918 13.7033 1.89541 12.948C2.19164 12.1927 2.75317 11.5713 3.47474 11.2004C4.19632 10.8295 5.02755 10.7345 5.81416 10.9332ZM8.33333 4.99992C8.33333 5.21879 8.37644 5.43551 8.46019 5.63772C8.54395 5.83993 8.66672 6.02366 8.82148 6.17843C8.97625 6.33319 9.15998 6.45596 9.36219 6.53972C9.5644 6.62347 9.78112 6.66658 9.99999 6.66658C10.2189 6.66658 10.4356 6.62347 10.6378 6.53972C10.84 6.45596 11.0237 6.33319 11.1785 6.17843C11.3333 6.02366 11.456 5.83993 11.5398 5.63772C11.6235 5.43551 11.6667 5.21879 11.6667 4.99992C11.6667 4.55789 11.4911 4.13397 11.1785 3.82141C10.8659 3.50885 10.442 3.33325 9.99999 3.33325C9.55797 3.33325 9.13404 3.50884 8.82148 3.82141C8.50892 4.13397 8.33333 4.55789 8.33333 4.99992ZM13.3333 14.1666C13.3333 14.6086 13.5089 15.0325 13.8215 15.3451C14.134 15.6577 14.558 15.8333 15 15.8333C15.442 15.8333 15.8659 15.6577 16.1785 15.3451C16.4911 15.0325 16.6667 14.6086 16.6667 14.1666C16.6667 13.7246 16.4911 13.3006 16.1785 12.9881C15.8659 12.6755 15.442 12.4999 15 12.4999C14.558 12.4999 14.134 12.6755 13.8215 12.9881C13.5089 13.3006 13.3333 13.7246 13.3333 14.1666ZM3.33333 14.1666C3.33333 14.3855 3.37644 14.6022 3.46019 14.8044C3.54395 15.0066 3.66672 15.1903 3.82148 15.3451C3.97625 15.4999 4.15998 15.6226 4.36219 15.7064C4.5644 15.7901 4.78112 15.8333 4.99999 15.8333C5.21886 15.8333 5.43559 15.7901 5.6378 15.7064C5.84001 15.6226 6.02374 15.4999 6.1785 15.3451C6.33327 15.1903 6.45603 15.0066 6.53979 14.8044C6.62355 14.6022 6.66666 14.3855 6.66666 14.1666C6.66666 13.7246 6.49106 13.3006 6.1785 12.9881C5.86594 12.6755 5.44202 12.4999 4.99999 12.4999C4.55797 12.4999 4.13404 12.6755 3.82148 12.9881C3.50892 13.3006 3.33333 13.7246 3.33333 14.1666Z" fill="#002FA7"/>
</svg>
