<svg width="14" height="20" viewBox="0 0 14 20" fill="none" xmlns="http://www.w3.org/2000/svg">
<path d="M7.8 5.125C7.8 5.4464 7.89384 5.76057 8.06965 6.0278C8.24546 6.29503 8.49534 6.50331 8.78771 6.6263C9.08007 6.7493 9.40177 6.78148 9.71214 6.71878C10.0225 6.65608 10.3076 6.50131 10.5314 6.27405C10.7551 6.04679 10.9075 5.75724 10.9693 5.44202C11.031 5.1268 10.9993 4.80007 10.8782 4.50314C10.7571 4.20621 10.552 3.95242 10.2889 3.77386C10.0258 3.59531 9.71645 3.5 9.4 3.5C8.97565 3.5 8.56869 3.67121 8.26863 3.97595C7.96857 4.2807 7.8 4.69402 7.8 5.125ZM9.4 8.375C9.71645 8.375 10.0258 8.4703 10.2889 8.64886C10.552 8.82742 10.7571 9.08121 10.8782 9.37814C10.9993 9.67507 11.031 10.0018 10.9693 10.317C10.9075 10.6322 10.7551 10.9218 10.5314 11.149C10.3076 11.3763 10.0225 11.5311 9.71214 11.5938C9.40177 11.6565 9.08007 11.6243 8.78771 11.5013C8.49534 11.3783 8.24546 11.17 8.06965 10.9028C7.89384 10.6356 7.8 10.3214 7.8 10C7.8 9.56902 7.96857 9.1557 8.26863 8.85095C8.56869 8.54621 8.97565 8.375 9.4 8.375ZM9.4 13.25C9.71645 13.25 10.0258 13.3453 10.2889 13.5239C10.552 13.7024 10.7571 13.9562 10.8782 14.2531C10.9993 14.5501 11.031 14.8768 10.9693 15.192C10.9075 15.5072 10.7551 15.7968 10.5314 16.024C10.3076 16.2513 10.0225 16.4061 9.71214 16.4688C9.40177 16.5315 9.08007 16.4993 8.78771 16.3763C8.49534 16.2533 8.24546 16.045 8.06965 15.7778C7.89384 15.5106 7.8 15.1964 7.8 14.875C7.8 14.444 7.96857 14.0307 8.26863 13.726C8.56869 13.4212 8.97565 13.25 9.4 13.25ZM4.6 6.75C4.28355 6.75 3.97421 6.6547 3.71109 6.47614C3.44797 6.29758 3.24289 6.04379 3.12179 5.74686C3.00069 5.44993 2.96901 5.1232 3.03074 4.80798C3.09248 4.49276 3.24487 4.20321 3.46863 3.97595C3.69239 3.74869 3.97749 3.59393 4.28786 3.53122C4.59823 3.46852 4.91993 3.5007 5.21229 3.6237C5.50466 3.74669 5.75454 3.95497 5.93035 4.2222C6.10616 4.48943 6.2 4.80361 6.2 5.125C6.2 5.3384 6.15861 5.54971 6.07821 5.74686C5.9978 5.94402 5.87994 6.12315 5.73137 6.27405C5.43131 6.5788 5.02435 6.75 4.6 6.75ZM4.6 8.375C4.91645 8.375 5.22579 8.4703 5.48891 8.64886C5.75203 8.82742 5.95711 9.08121 6.07821 9.37814C6.19931 9.67507 6.23099 10.0018 6.16926 10.317C6.10752 10.6322 5.95513 10.9218 5.73137 11.149C5.50761 11.3763 5.22251 11.5311 4.91214 11.5938C4.60178 11.6565 4.28007 11.6243 3.98771 11.5013C3.69535 11.3783 3.44546 11.17 3.26965 10.9028C3.09384 10.6356 3 10.3214 3 10C3 9.7866 3.04139 9.57529 3.12179 9.37814C3.2022 9.18099 3.32006 9.00185 3.46863 8.85095C3.6172 8.70006 3.79359 8.58036 3.98771 8.4987C4.18183 8.41703 4.38989 8.375 4.6 8.375ZM4.6 13.25C4.91645 13.25 5.22579 13.3453 5.48891 13.5239C5.75203 13.7024 5.95711 13.9562 6.07821 14.2531C6.19931 14.5501 6.23099 14.8768 6.16926 15.192C6.10752 15.5072 5.95513 15.7968 5.73137 16.024C5.50761 16.2513 5.22251 16.4061 4.91214 16.4688C4.60178 16.5315 4.28007 16.4993 3.98771 16.3763C3.69535 16.2533 3.44546 16.045 3.26965 15.7778C3.09384 15.5106 3 15.1964 3 14.875C3 14.6616 3.04139 14.4503 3.12179 14.2531C3.2022 14.056 3.32006 13.8768 3.46863 13.726C3.6172 13.5751 3.79359 13.4554 3.98771 13.3737C4.18183 13.292 4.38989 13.25 4.6 13.25Z" fill="#002FA7"/>
</svg>
