<svg width="20" height="20" viewBox="0 0 20 20" fill="none" xmlns="http://www.w3.org/2000/svg">
<path d="M14.0083 8.33331C14.0846 8.41119 14.1274 8.51591 14.1274 8.62497C14.1274 8.73404 14.0846 8.83875 14.0083 8.91664L7.2916 15.6583C7.13047 15.8209 6.93757 15.9485 6.72493 16.0333L3.10827 17.5C3.03253 17.5305 2.9495 17.538 2.8695 17.5217C2.78949 17.5054 2.71604 17.466 2.65827 17.4083C2.57478 17.355 2.513 17.2738 2.48399 17.1791C2.45497 17.0844 2.46062 16.9825 2.49993 16.8916L3.93327 13.275C4.01802 13.0623 4.14568 12.8694 4.30827 12.7083L11.0333 5.98331C11.072 5.94425 11.1181 5.91326 11.1689 5.8921C11.2196 5.87095 11.2741 5.86006 11.3291 5.86006C11.3841 5.86006 11.4386 5.87095 11.4893 5.8921C11.5401 5.91326 11.5862 5.94425 11.6249 5.98331L14.0083 8.33331ZM17.1333 3.41664L16.5833 2.86664C16.3491 2.63215 16.0313 2.50027 15.6999 2.49997H15.0666C14.8997 2.49791 14.7341 2.52929 14.5795 2.59226C14.4249 2.65524 14.2845 2.74853 14.1666 2.86664L12.6583 4.39164C12.5819 4.46953 12.5392 4.57424 12.5392 4.68331C12.5392 4.79237 12.5819 4.89709 12.6583 4.97497L14.9999 7.34997C15.0387 7.38903 15.0848 7.42002 15.1355 7.44118C15.1863 7.46233 15.2408 7.47322 15.2958 7.47322C15.3508 7.47322 15.4052 7.46233 15.456 7.44118C15.5068 7.42002 15.5529 7.38903 15.5916 7.34997L17.1333 5.83331C17.2514 5.71537 17.3447 5.57497 17.4076 5.4204C17.4706 5.26583 17.502 5.1002 17.4999 4.93331V4.29997C17.4996 3.96856 17.3678 3.65084 17.1333 3.41664Z" fill="currentColor"/>
</svg>
