<svg width="20" height="20" viewBox="0 0 20 20" fill="none"
  xmlns="http://www.w3.org/2000/svg">
  <path fill-rule="evenodd" clip-rule="evenodd" d="M8.45043 2H7.03807C5.75619 2 4.6338 2.86017 4.30054 4.09798L3.92308 5.5H2.78376L2.22709 7.17H3.47346L1.5 14.5H3.22947L5.20293 7.17H6.72709L7.28376 5.5H5.65254L5.91312 4.53213C6.05007 4.02348 6.5113 3.67 7.03807 3.67H7.89376L8.45043 2ZM8.45299 14.5641C8.45291 14.5638 8.45282 14.5635 7.66251 14.7409C6.87219 14.9182 6.8721 14.9179 6.872 14.9175L6.87177 14.9168L6.87123 14.9149L6.8698 14.9098L6.86556 14.8944C6.86216 14.882 6.8576 14.865 6.85207 14.8438C6.841 14.8013 6.826 14.7415 6.80841 14.666C6.77326 14.5149 6.72764 14.3 6.68238 14.0329C6.59202 13.4998 6.50208 12.7528 6.50147 11.8858C6.50025 10.1575 6.85492 7.90156 8.32366 5.93502L9.66307 7.02708C8.46097 8.6366 8.15021 10.5105 8.15127 12.0182C8.1518 12.7691 8.22993 13.4165 8.30736 13.8734C8.34598 14.1013 8.38418 14.2803 8.41188 14.3993C8.42572 14.4588 8.4369 14.5031 8.44416 14.531L8.45193 14.5602L8.45299 14.5641ZM16.4208 6.52747C16.4209 6.52775 16.421 6.52805 17.2112 6.35091C18.0014 6.17377 18.0015 6.1741 18.0016 6.17445L18.0018 6.17523L18.0024 6.17714L18.0038 6.18224L18.0081 6.19755C18.0115 6.21002 18.016 6.22697 18.0216 6.24822C18.0326 6.29072 18.0476 6.35048 18.0652 6.42607C18.1004 6.57717 18.1461 6.79205 18.1914 7.05915C18.2818 7.59233 18.3719 8.33945 18.3726 9.20647C18.3741 10.9348 18.0198 13.1908 16.5515 15.1571L15.212 14.0646C16.4138 12.4553 16.7242 10.5813 16.7229 9.07362C16.7223 8.32261 16.6441 7.67516 16.5666 7.21828C16.5279 6.99035 16.4897 6.81132 16.462 6.69227C16.4481 6.63279 16.4369 6.58842 16.4297 6.56056L16.4219 6.53135L16.4208 6.52747ZM11.5456 10.4582L10.0722 6.26588H11.8423L12.6769 8.64054L14.1549 6.26588H16.1219L13.3868 10.6604L14.7363 14.5H12.9662L12.2555 12.4781L10.9971 14.5H9.03005L11.5456 10.4582ZM19 16.165L1 16.165V17.835L19 17.835V16.165Z" fill="currentColor"/>
</svg>
