<svg width="20" height="20" viewBox="0 0 20 20" fill="none" xmlns="http://www.w3.org/2000/svg">
<path d="M13.7501 2.5C13.0414 2.52208 12.3444 2.68613 11.7002 2.98243C11.0561 3.27873 10.478 3.70126 10.0001 4.225C9.52218 3.70126 8.94404 3.27873 8.29991 2.98243C7.65578 2.68613 6.95875 2.52208 6.25008 2.5C5.64819 2.5 5.05219 2.61855 4.49612 2.84889C3.94004 3.07922 3.43478 3.41683 3.00918 3.84243C2.14963 4.70197 1.66675 5.86776 1.66675 7.08333C1.66675 10.35 5.62508 13.9583 7.50008 15.8333L9.40008 17.7333C9.51718 17.8506 9.67604 17.9165 9.84175 17.9167H10.1584C10.3241 17.9165 10.483 17.8506 10.6001 17.7333L12.5001 15.8333C14.3751 13.9583 18.3334 10.35 18.3334 7.08333C18.3334 5.86776 17.8505 4.70197 16.991 3.84243C16.1314 2.98289 14.9657 2.5 13.7501 2.5ZM11.8334 14.1667L10.0001 15.975L8.16675 14.1667C6.47508 12.5 3.33341 9.38333 3.33341 7.08333C3.33341 6.70031 3.40886 6.32104 3.55543 5.96717C3.70201 5.61331 3.91685 5.29178 4.18769 5.02094C4.45852 4.7501 4.78005 4.53526 5.13392 4.38868C5.48779 4.24211 5.86706 4.16667 6.25008 4.16667C6.87029 4.22308 7.46996 4.41781 8.00499 4.73652C8.54002 5.05523 8.9968 5.48982 9.34175 6.00833C9.40167 6.08349 9.47771 6.14423 9.56425 6.18606C9.65079 6.22789 9.74563 6.24974 9.84175 6.25H10.2167C10.2813 6.24937 10.3449 6.23403 10.4027 6.20515C10.4604 6.17627 10.5108 6.13461 10.5501 6.08333C10.9005 5.54511 11.3681 5.09312 11.918 4.7612C12.4678 4.42928 13.0856 4.22603 13.7251 4.16667C14.1102 4.16337 14.4922 4.23637 14.8489 4.38147C15.2057 4.52657 15.5302 4.74088 15.8037 5.01205C16.0771 5.28322 16.2942 5.60586 16.4424 5.96137C16.5905 6.31687 16.6668 6.6982 16.6667 7.08333C16.6667 9.38333 13.5251 12.5 11.8334 14.1667Z" fill="#002FA7"/>
</svg>
