<svg width="20" height="20" viewBox="0 0 20 20" fill="none" xmlns="http://www.w3.org/2000/svg">
<path d="M15.3033 12.9467L14.125 11.7667L15.3033 10.5883C15.693 10.202 16.0025 9.74257 16.2142 9.23632C16.4258 8.73007 16.5354 8.187 16.5366 7.63829C16.5378 7.08959 16.4306 6.54604 16.2212 6.03887C16.0118 5.5317 15.7042 5.07089 15.3162 4.68289C14.9282 4.2949 14.4674 3.98736 13.9603 3.77793C13.4531 3.5685 12.9095 3.46131 12.3608 3.46251C11.8121 3.46372 11.2691 3.57328 10.7628 3.78493C10.2566 3.99658 9.79709 4.30613 9.4108 4.69582L8.23247 5.87499L7.0533 4.69666L8.2333 3.51832C9.32732 2.42431 10.8111 1.80969 12.3583 1.80969C13.9055 1.80969 15.3893 2.42431 16.4833 3.51832C17.5773 4.61234 18.1919 6.09615 18.1919 7.64332C18.1919 9.1905 17.5773 10.6743 16.4833 11.7683L15.3041 12.9467H15.3033ZM12.9466 15.3033L11.7675 16.4817C10.6734 17.5757 9.18964 18.1903 7.64247 18.1903C6.09529 18.1903 4.61149 17.5757 3.51747 16.4817C2.42345 15.3876 1.80884 13.9038 1.80884 12.3567C1.80884 10.8095 2.42345 9.32567 3.51747 8.23166L4.69664 7.05332L5.87497 8.23332L4.69664 9.41166C4.30694 9.79795 3.99739 10.2574 3.78574 10.7637C3.5741 11.2699 3.46453 11.813 3.46333 12.3617C3.46212 12.9104 3.56931 13.4539 3.77874 13.9611C3.98817 14.4683 4.29571 14.9291 4.6837 15.3171C5.0717 15.7051 5.53251 16.0126 6.03968 16.222C6.54685 16.4315 7.0904 16.5387 7.63911 16.5375C8.18781 16.5363 8.73088 16.4267 9.23713 16.215C9.74338 16.0034 10.2028 15.6938 10.5891 15.3042L11.7675 14.1258L12.9466 15.3042V15.3033ZM12.3566 6.46416L13.5358 7.64332L7.6433 13.535L6.46413 12.3567L12.3566 6.46499V6.46416Z" fill="currentColor"/>
</svg>
