<svg width="20" height="20" viewBox="0 0 20 20" fill="none" xmlns="http://www.w3.org/2000/svg">
<path d="M5 6.66671V5.83337C5 4.50729 5.52678 3.23552 6.46447 2.29784C7.40215 1.36016 8.67392 0.833374 10 0.833374C11.3261 0.833374 12.5979 1.36016 13.5355 2.29784C14.4732 3.23552 15 4.50729 15 5.83337V6.66671H16.6667C16.8877 6.66671 17.0996 6.7545 17.2559 6.91079C17.4122 7.06707 17.5 7.27903 17.5 7.50004V17.5C17.5 17.7211 17.4122 17.933 17.2559 18.0893C17.0996 18.2456 16.8877 18.3334 16.6667 18.3334H3.33333C3.11232 18.3334 2.90036 18.2456 2.74408 18.0893C2.5878 17.933 2.5 17.7211 2.5 17.5V7.50004C2.5 7.27903 2.5878 7.06707 2.74408 6.91079C2.90036 6.7545 3.11232 6.66671 3.33333 6.66671H5ZM15.8333 8.33337H4.16667V16.6667H15.8333V8.33337ZM9.16667 13.11C8.84893 12.9266 8.6006 12.6434 8.4602 12.3045C8.3198 11.9655 8.29517 11.5897 8.39012 11.2353C8.48508 10.8809 8.69432 10.5678 8.9854 10.3444C9.27647 10.1211 9.63311 10 10 10C10.3669 10 10.7235 10.1211 11.0146 10.3444C11.3057 10.5678 11.5149 10.8809 11.6099 11.2353C11.7048 11.5897 11.6802 11.9655 11.5398 12.3045C11.3994 12.6434 11.1511 12.9266 10.8333 13.11V15H9.16667V13.11ZM6.66667 6.66671H13.3333V5.83337C13.3333 4.94932 12.9821 4.10147 12.357 3.47635C11.7319 2.85123 10.8841 2.50004 10 2.50004C9.11594 2.50004 8.2681 2.85123 7.64298 3.47635C7.01786 4.10147 6.66667 4.94932 6.66667 5.83337V6.66671Z" fill="#002FA7"/>
</svg>
