<svg width="20" height="20" viewBox="0 0 20 20" fill="none" xmlns="http://www.w3.org/2000/svg">
<path d="M1.66663 3.3275C1.66815 3.10865 1.75571 2.89918 1.91039 2.74435C2.06506 2.58951 2.27444 2.50175 2.49329 2.5H17.5066C17.9633 2.5 18.3333 2.87083 18.3333 3.3275V16.6725C18.3318 16.8914 18.2442 17.1008 18.0895 17.2557C17.9349 17.4105 17.7255 17.4983 17.5066 17.5H2.49329C2.27397 17.4998 2.06371 17.4125 1.9087 17.2573C1.75369 17.1022 1.66663 16.8918 1.66663 16.6725V3.3275ZM9.16663 4.16667H3.33329V15.8333H9.16663V4.16667ZM10.8333 4.16667V15.8333H16.6666V4.16667H10.8333ZM11.6666 5.83333H15.8333V7.5H11.6666V5.83333ZM11.6666 8.33333H15.8333V10H11.6666V8.33333Z" fill="currentColor"/>
</svg>
