<svg width="20" height="20" viewBox="0 0 20 20" fill="none" xmlns="http://www.w3.org/2000/svg">
<path d="M15 9.88337V10.1167C14.9997 10.2259 14.9711 10.3332 14.9171 10.4281C14.8631 10.523 14.7854 10.6023 14.6917 10.6584L7.23337 15C6.78337 15.2667 6.55004 15.2667 6.35004 15.15L6.14171 15.0334C6.05035 14.9788 5.97421 14.9021 5.92032 14.8104C5.86643 14.7186 5.83652 14.6147 5.83337 14.5084V5.49171C5.83371 5.3825 5.86227 5.27523 5.9163 5.18032C5.97032 5.08541 6.04797 5.00608 6.14171 4.95004L6.35004 4.83337C6.55004 4.71671 6.78337 4.71671 7.36671 5.05837L14.6917 9.34171C14.7854 9.39775 14.8631 9.47707 14.9171 9.57199C14.9711 9.6669 14.9997 9.77416 15 9.88337Z" fill="#002FA7"/>
</svg>
