<svg width="20" height="20" viewBox="0 0 20 20" fill="none" xmlns="http://www.w3.org/2000/svg">
<path d="M15 15.8333H15.8333V5.69L14.31 4.16667H13.3333V7.5H5.83333V4.16667H4.16667V15.8333H5V10H15V15.8333ZM3.33333 2.5H15L17.2558 4.75583C17.4121 4.91208 17.5 5.124 17.5 5.345V16.6667C17.5 16.8877 17.4122 17.0996 17.2559 17.2559C17.0996 17.4122 16.8877 17.5 16.6667 17.5H3.33333C3.11232 17.5 2.90036 17.4122 2.74408 17.2559C2.5878 17.0996 2.5 16.8877 2.5 16.6667V3.33333C2.5 3.11232 2.5878 2.90036 2.74408 2.74408C2.90036 2.5878 3.11232 2.5 3.33333 2.5ZM6.66667 11.6667V15.8333H13.3333V11.6667H6.66667Z" fill="#002FA7"/>
</svg>
