<svg width="20" height="20" viewBox="0 0 20 20" fill="none" xmlns="http://www.w3.org/2000/svg">
<path d="M16.8416 11.7251C16.6423 11.5596 16.4843 11.3499 16.3801 11.1127C16.276 10.8754 16.2285 10.6172 16.2416 10.3584V10.0001V9.64175C16.2285 9.38299 16.276 9.12474 16.3801 8.8875C16.4843 8.65026 16.6423 8.44057 16.8416 8.27508L17.5083 7.72509C17.6601 7.59974 17.7627 7.4247 17.7977 7.23098C17.8328 7.03726 17.7982 6.83738 17.7 6.66675L16.7333 5.00009C16.6606 4.87414 16.5562 4.76941 16.4305 4.69631C16.3047 4.62322 16.1621 4.5843 16.0166 4.58342C15.9164 4.58174 15.8169 4.60164 15.725 4.64175L14.8916 4.94175C14.7058 5.01449 14.5079 5.05125 14.3083 5.05009C13.989 5.04926 13.6766 4.9567 13.4083 4.78342C13.2124 4.64808 13.0062 4.52827 12.7916 4.42509C12.5604 4.30649 12.3601 4.13546 12.2067 3.92566C12.0533 3.71585 11.9511 3.47309 11.9083 3.21675L11.7666 2.38342C11.7347 2.18623 11.633 2.00708 11.48 1.8786C11.3271 1.75011 11.1331 1.68085 10.9333 1.68342H9.01664C8.8169 1.68085 8.62288 1.75011 8.46993 1.8786C8.31697 2.00708 8.21526 2.18623 8.18331 2.38342L8.04164 3.21675C8.00238 3.46995 7.90526 3.71068 7.75784 3.92024C7.61042 4.12981 7.41667 4.30256 7.19164 4.42509C6.97706 4.52827 6.77088 4.64808 6.57498 4.78342C6.30672 4.9567 5.99433 5.04926 5.67498 5.05009C5.47543 5.05125 5.27747 5.01449 5.09164 4.94175L4.25831 4.64175C4.16639 4.60164 4.06692 4.58174 3.96664 4.58342C3.82122 4.5843 3.67855 4.62322 3.55282 4.69631C3.4271 4.76941 3.32269 4.87414 3.24998 5.00009L2.29998 6.66675C2.20269 6.8383 2.1694 7.03879 2.20602 7.23257C2.24264 7.42635 2.3468 7.60087 2.49998 7.72509L3.16664 8.27508C3.366 8.44057 3.52403 8.65026 3.62818 8.8875C3.73234 9.12474 3.77974 9.38299 3.76664 9.64175V10.3584C3.77974 10.6172 3.73234 10.8754 3.62818 11.1127C3.52403 11.3499 3.366 11.5596 3.16664 11.7251L2.49998 12.2751C2.3468 12.3993 2.24264 12.5738 2.20602 12.7676C2.1694 12.9614 2.20269 13.1619 2.29998 13.3334L3.26664 15.0001C3.33936 15.126 3.44376 15.2308 3.56949 15.3039C3.69522 15.377 3.83788 15.4159 3.98331 15.4168C4.08359 15.4184 4.18306 15.3985 4.27498 15.3584L5.10831 15.0584C5.29414 14.9857 5.49209 14.9489 5.69164 14.9501C6.011 14.9509 6.32339 15.0435 6.59164 15.2168C6.78754 15.3521 6.99373 15.4719 7.20831 15.5751C7.43956 15.6937 7.63988 15.8647 7.79325 16.0745C7.94663 16.2843 8.04881 16.5271 8.09164 16.7834L8.23331 17.6168C8.26526 17.8139 8.36697 17.9931 8.51993 18.1216C8.67288 18.2501 8.8669 18.3193 9.06664 18.3168H10.9833C11.1831 18.3193 11.3771 18.2501 11.53 18.1216C11.683 17.9931 11.7847 17.8139 11.8166 17.6168L11.9583 16.7834C12.0011 16.5271 12.1033 16.2843 12.2567 16.0745C12.4101 15.8647 12.6104 15.6937 12.8416 15.5751C13.0562 15.4719 13.2624 15.3521 13.4583 15.2168C13.7266 15.0435 14.039 14.9509 14.3583 14.9501C14.5579 14.9489 14.7558 14.9857 14.9416 15.0584L15.775 15.3584C15.8669 15.3985 15.9664 15.4184 16.0666 15.4168C16.2121 15.4159 16.3547 15.377 16.4805 15.3039C16.6062 15.2308 16.7106 15.126 16.7833 15.0001L17.75 13.3334C17.8419 13.1563 17.8673 12.9521 17.8214 12.7579C17.7755 12.5636 17.6615 12.3923 17.5 12.2751L16.8416 11.7251ZM9.99998 14.5834C9.09348 14.5834 8.20734 14.3146 7.45361 13.811C6.69989 13.3074 6.11243 12.5915 5.76553 11.7541C5.41863 10.9166 5.32786 9.995 5.50471 9.10592C5.68156 8.21684 6.11808 7.40017 6.75907 6.75918C7.40006 6.11819 8.21673 5.68167 9.10581 5.50482C9.99489 5.32797 10.9164 5.41874 11.7539 5.76564C12.5914 6.11254 13.3073 6.7 13.8109 7.45372C14.3145 8.20745 14.5833 9.09359 14.5833 10.0001C14.5833 11.2157 14.1004 12.3814 13.2409 13.241C12.3813 14.1005 11.2156 14.5834 9.99998 14.5834Z" fill="#002FA7"/>
</svg>
