<svg width="20" height="20" viewBox="0 0 20 20" fill="none" xmlns="http://www.w3.org/2000/svg">
<path d="M7.18576 2.8574C7.4619 2.8574 7.68576 3.08125 7.68576 3.3574V3.9288C7.68576 4.20494 7.4619 4.4288 7.18576 4.4288H4.1245C3.84836 4.4288 3.6245 4.65265 3.6245 4.9288V14.9286C3.6245 15.2047 3.84836 15.4286 4.1245 15.4286H16.1205C16.3967 15.4286 16.6205 15.2047 16.6205 14.9286V8.8573C16.6205 8.58116 16.8444 8.3573 17.1205 8.3573H17.745C18.0212 8.3573 18.245 8.58116 18.245 8.8573V16.2143C18.245 16.4227 18.1595 16.6225 18.0071 16.7699C17.8548 16.9172 17.6482 17 17.4328 17H2.81225C2.59683 17 2.39023 16.9172 2.2379 16.7699C2.08558 16.6225 2 16.4227 2 16.2143V3.6431C2 3.43472 2.08558 3.23487 2.2379 3.08752C2.39023 2.94017 2.59683 2.8574 2.81225 2.8574H7.18576ZM15.7677 4.4288L13.743 2.47036C13.5399 2.27384 13.5399 1.94812 13.743 1.7516L14.1724 1.33627C14.3662 1.14877 14.6738 1.14877 14.8677 1.33627L18.8575 5.19564C18.9255 5.26157 18.9719 5.34553 18.9907 5.43692C19.0094 5.52831 18.9998 5.62303 18.9629 5.70913C18.9261 5.79521 18.8637 5.86881 18.7836 5.92062C18.7035 5.97242 18.6094 6.00011 18.5131 6.0002H11.747C11.3162 6.0002 10.903 6.16575 10.5983 6.46045C10.2937 6.75514 10.1225 7.15484 10.1225 7.5716V11.7858C10.1225 12.0619 9.89866 12.2858 9.62252 12.2858H8.99801C8.72187 12.2858 8.49801 12.0619 8.49801 11.7858V7.5716C8.49801 6.73807 8.84032 5.93869 9.44963 5.3493C10.0589 4.75991 10.8853 4.4288 11.747 4.4288H15.7677Z" fill="currentColor"/>
</svg>
