<svg width="20" height="20" viewBox="0 0 20 20" fill="none" xmlns="http://www.w3.org/2000/svg">
<path d="M8.45003 8.22493L4.4417 8.5416L7.50003 11.1499L6.5667 15.0499L10 12.9583L13.4417 15.0499L12.5 11.1499L15.5584 8.5416L11.55 8.22493L10 4.50826L8.45003 8.22493ZM10.1084 1.6666C10.1942 1.66547 10.2783 1.69034 10.3497 1.73794C10.4211 1.78554 10.4764 1.85363 10.5084 1.93326L12.55 6.8416L17.875 7.2666C17.9587 7.2717 18.0388 7.30243 18.1044 7.35461C18.17 7.40679 18.2179 7.47789 18.2417 7.55826L18.3334 7.7666C18.361 7.84538 18.3639 7.93077 18.3415 8.01123C18.3192 8.09169 18.2727 8.16337 18.2084 8.2166L14.1667 11.6666L15.3667 16.8499C15.3866 16.931 15.3822 17.0161 15.354 17.0946C15.3258 17.1731 15.2752 17.2416 15.2084 17.2916L15 17.4166C14.9288 17.4724 14.8405 17.5019 14.75 17.4999C14.6737 17.5016 14.5985 17.4813 14.5334 17.4416L10 14.6666L5.4417 17.4416C5.37652 17.4813 5.30134 17.5016 5.22503 17.4999C5.13457 17.5019 5.04624 17.4724 4.97503 17.4166L4.7917 17.2916C4.72486 17.2416 4.67421 17.1731 4.64606 17.0946C4.6179 17.0161 4.61349 16.931 4.63336 16.8499L5.83336 11.6666L1.78336 8.20826C1.72211 8.15466 1.67828 8.08397 1.65749 8.00527C1.6367 7.92657 1.63991 7.84346 1.6667 7.7666L1.73336 7.55826C1.75715 7.47789 1.80511 7.40679 1.8707 7.35461C1.9363 7.30243 2.01637 7.2717 2.10003 7.2666L7.42503 6.8416L9.50003 1.93326C9.52948 1.8536 9.58303 1.78511 9.65323 1.73731C9.72343 1.68951 9.80679 1.66479 9.8917 1.6666H10.1084Z" fill="currentColor"/>
<path d="M1.81656 8.2166C1.74781 8.16655 1.6964 8.09629 1.66951 8.01561C1.64262 7.93494 1.64159 7.84789 1.66656 7.7666L1.73322 7.55827C1.75702 7.47789 1.80497 7.40679 1.87056 7.35461C1.93616 7.30243 2.01623 7.2717 2.09989 7.2666L7.42489 6.8416L9.46656 1.93327C9.49993 1.84947 9.5591 1.77847 9.63551 1.73053C9.71191 1.68259 9.80159 1.6602 9.89156 1.6666H10.1082C10.1931 1.6648 10.2765 1.68952 10.3467 1.73731C10.4169 1.78511 10.4704 1.85361 10.4999 1.93327L12.5499 6.8416L17.8749 7.2666C17.9586 7.2717 18.0386 7.30243 18.1042 7.35461C18.1698 7.40679 18.2178 7.47789 18.2416 7.55827L18.3082 7.7666C18.3359 7.84539 18.3388 7.93077 18.3164 8.01123C18.2941 8.0917 18.2476 8.16337 18.1832 8.2166L14.1666 11.6666L15.3999 16.8416C15.4198 16.9226 15.4153 17.0077 15.3872 17.0863C15.359 17.1648 15.3084 17.2333 15.2416 17.2833L14.9999 17.4166C14.931 17.4632 14.8497 17.4881 14.7666 17.4881C14.6834 17.4881 14.6021 17.4632 14.5332 17.4166L9.99989 14.6666L5.44156 17.4416C5.37265 17.4882 5.29139 17.5131 5.20822 17.5131C5.12506 17.5131 5.04379 17.4882 4.97489 17.4416L4.79156 17.3166C4.72472 17.2667 4.67407 17.1981 4.64592 17.1196C4.61776 17.0411 4.61335 16.956 4.63322 16.8749L5.83322 11.6666L1.81656 8.2166Z" fill="#FFC12F"/>
</svg>
