<svg width="20" height="20" viewBox="0 0 20 20" fill="none" xmlns="http://www.w3.org/2000/svg">
<path d="M8.45003 8.22493L4.4417 8.5416L7.50003 11.1499L6.5667 15.0499L10 12.9583L13.4417 15.0499L12.5 11.1499L15.5584 8.5416L11.55 8.22493L10 4.50826L8.45003 8.22493ZM10.1084 1.6666C10.1942 1.66547 10.2783 1.69034 10.3497 1.73794C10.4211 1.78554 10.4764 1.85363 10.5084 1.93326L12.55 6.8416L17.875 7.2666C17.9587 7.2717 18.0388 7.30243 18.1044 7.35461C18.17 7.40679 18.2179 7.47789 18.2417 7.55826L18.3334 7.7666C18.361 7.84538 18.3639 7.93077 18.3415 8.01123C18.3192 8.09169 18.2727 8.16337 18.2084 8.2166L14.1667 11.6666L15.3667 16.8499C15.3866 16.931 15.3822 17.0161 15.354 17.0946C15.3258 17.1731 15.2752 17.2416 15.2084 17.2916L15 17.4166C14.9288 17.4724 14.8405 17.5019 14.75 17.4999C14.6737 17.5016 14.5985 17.4813 14.5334 17.4416L10 14.6666L5.4417 17.4416C5.37652 17.4813 5.30134 17.5016 5.22503 17.4999C5.13457 17.5019 5.04624 17.4724 4.97503 17.4166L4.7917 17.2916C4.72486 17.2416 4.67421 17.1731 4.64606 17.0946C4.6179 17.0161 4.61349 16.931 4.63336 16.8499L5.83336 11.6666L1.78336 8.20826C1.72211 8.15466 1.67828 8.08397 1.65749 8.00527C1.6367 7.92657 1.63991 7.84346 1.6667 7.7666L1.73336 7.55826C1.75715 7.47789 1.80511 7.40679 1.8707 7.35461C1.9363 7.30243 2.01637 7.2717 2.10003 7.2666L7.42503 6.8416L9.50003 1.93326C9.52948 1.8536 9.58303 1.78511 9.65323 1.73731C9.72343 1.68951 9.80679 1.66479 9.8917 1.6666H10.1084Z" fill="#002FA7"/>
</svg>
