<svg width="20" height="20" viewBox="0 0 20 20" fill="none" xmlns="http://www.w3.org/2000/svg">
<path d="M15.8334 9.58335V10.4167C15.8334 10.4714 15.8226 10.5256 15.8016 10.5761C15.7807 10.6267 15.75 10.6726 15.7113 10.7113C15.6726 10.75 15.6267 10.7807 15.5761 10.8016C15.5256 10.8226 15.4714 10.8334 15.4167 10.8334C7.67877 10.8334 12.3213 10.8334 4.58335 10.8334C4.52864 10.8334 4.47445 10.8226 4.4239 10.8016C4.37335 10.7807 4.32742 10.75 4.28873 10.7113C4.25003 10.6726 4.21934 10.6267 4.1984 10.5761C4.17746 10.5256 4.16669 10.4714 4.16669 10.4167V9.58335C4.16669 9.52864 4.17746 9.47445 4.1984 9.4239C4.21934 9.37335 4.25003 9.32742 4.28873 9.28873C4.32742 9.25004 4.37335 9.21934 4.4239 9.1984C4.47445 9.17746 4.52864 9.16669 4.58335 9.16669C13.2534 9.16669 6.74662 9.16669 15.4167 9.16669C15.4714 9.16669 15.5256 9.17746 15.5761 9.1984C15.6267 9.21934 15.6726 9.25004 15.7113 9.28873C15.75 9.32742 15.7807 9.37335 15.8016 9.4239C15.8226 9.47445 15.8334 9.52864 15.8334 9.58335Z" fill="currentColor"/>
</svg>
