<svg width="20" height="20" viewBox="0 0 20 20" fill="none" xmlns="http://www.w3.org/2000/svg">
<path d="M9.99984 18.3333C5.39734 18.3333 1.6665 14.6025 1.6665 9.99996C1.6665 5.39746 5.39734 1.66663 9.99984 1.66663C14.6023 1.66663 18.3332 5.39746 18.3332 9.99996C18.3332 14.6025 14.6023 18.3333 9.99984 18.3333ZM9.99984 16.6666C11.7679 16.6666 13.4636 15.9642 14.7139 14.714C15.9641 13.4638 16.6665 11.7681 16.6665 9.99996C16.6665 8.23185 15.9641 6.53616 14.7139 5.28591C13.4636 4.03567 11.7679 3.33329 9.99984 3.33329C8.23173 3.33329 6.53603 4.03567 5.28579 5.28591C4.03555 6.53616 3.33317 8.23185 3.33317 9.99996C3.33317 11.7681 4.03555 13.4638 5.28579 14.714C6.53603 15.9642 8.23173 16.6666 9.99984 16.6666Z" fill="currentColor"/>
<path d="M7 9.5L9.5 12L13.5 8" stroke="currentColor" stroke-width="1.67"/>
</svg>
