<svg width="20" height="20" viewBox="0 0 20 20" fill="none"
  xmlns="http://www.w3.org/2000/svg">
  <path d="M10.0002 4.99992C8.91749 5.00147 7.86457 5.3544 6.99967 6.00566C6.13478 6.65692 5.50464 7.57132 5.20398 8.61141C4.90332 9.65151 4.94839 10.7611 5.3324 11.7734C5.71642 12.7857 6.41863 13.6459 7.3335 14.2249C7.51227 14.3376 7.65954 14.4938 7.76155 14.6789C7.86357 14.864 7.91699 15.0719 7.91683 15.2833V15.4166C7.91683 15.4713 7.92761 15.5255 7.94855 15.576C7.96949 15.6266 8.00018 15.6725 8.03887 15.7112C8.07756 15.7499 8.12349 15.7806 8.17405 15.8015C8.2246 15.8225 8.27878 15.8333 8.3335 15.8333H11.6668C11.7215 15.8333 11.7757 15.8225 11.8263 15.8015C11.8768 15.7806 11.9228 15.7499 11.9615 15.7112C12.0001 15.6725 12.0308 15.6266 12.0518 15.576C12.0727 15.5255 12.0835 15.4713 12.0835 15.4166V15.2833C12.0818 15.0716 12.1345 14.8631 12.2367 14.6777C12.3388 14.4924 12.487 14.3365 12.6668 14.2249C13.5817 13.6459 14.2839 12.7857 14.6679 11.7734C15.0519 10.7611 15.097 9.65151 14.7963 8.61141C14.4957 7.57132 13.8656 6.65692 13.0007 6.00566C12.1358 5.3544 11.0828 5.00147 10.0002 4.99992ZM10.0002 13.3333C9.34089 13.3333 8.69643 13.1378 8.14826 12.7715C7.6001 12.4052 7.17286 11.8846 6.92057 11.2755C6.66827 10.6664 6.60226 9.99622 6.73088 9.34962C6.8595 8.70301 7.17697 8.10907 7.64314 7.6429C8.10932 7.17672 8.70326 6.85925 9.34986 6.73063C9.99647 6.60202 10.6667 6.66803 11.2758 6.92032C11.8849 7.17261 12.4055 7.59985 12.7717 8.14802C13.138 8.69618 13.3335 9.34065 13.3335 9.99992C13.3335 10.884 12.9823 11.7318 12.3572 12.3569C11.7321 12.9821 10.8842 13.3333 10.0002 13.3333ZM8.3335 17.9916C8.33442 18.2102 8.42121 18.4197 8.57516 18.5749L8.92516 18.9249C9.08038 19.0789 9.28988 19.1657 9.5085 19.1666H10.4918C10.7104 19.1657 10.9199 19.0789 11.0752 18.9249L11.4252 18.5749C11.5791 18.4197 11.6659 18.2102 11.6668 17.9916V17.4999H8.3335V17.9916ZM9.5835 3.33325H10.4168C10.4715 3.33325 10.5257 3.32247 10.5763 3.30154C10.6268 3.2806 10.6728 3.2499 10.7115 3.21121C10.7501 3.17252 10.7808 3.12659 10.8018 3.07604C10.8227 3.02548 10.8335 2.9713 10.8335 2.91659V1.24992C10.8335 1.1952 10.8227 1.14102 10.8018 1.09047C10.7808 1.03991 10.7501 0.993982 10.7115 0.955291C10.6728 0.9166 10.6268 0.885908 10.5763 0.864969C10.5257 0.844029 10.4715 0.833252 10.4168 0.833252H9.5835C9.52878 0.833252 9.4746 0.844029 9.42405 0.864969C9.37349 0.885908 9.32756 0.9166 9.28887 0.955291C9.25018 0.993982 9.21949 1.03991 9.19855 1.09047C9.17761 1.14102 9.16683 1.1952 9.16683 1.24992V2.91659C9.16683 2.9713 9.17761 3.02548 9.19855 3.07604C9.21949 3.12659 9.25018 3.17252 9.28887 3.21121C9.32756 3.2499 9.37349 3.2806 9.42405 3.30154C9.4746 3.32247 9.52878 3.33325 9.5835 3.33325ZM16.7752 3.81659L16.1835 3.22492C16.1461 3.18506 16.1009 3.15329 16.0507 3.13157C16.0006 3.10986 15.9465 3.09865 15.8918 3.09865C15.8372 3.09865 15.7831 3.10986 15.7329 3.13157C15.6828 3.15329 15.6376 3.18506 15.6002 3.22492L14.4168 4.39992C14.34 4.47921 14.297 4.58531 14.297 4.69575C14.297 4.80619 14.34 4.91229 14.4168 4.99159L15.0002 5.58325C15.0795 5.66013 15.1856 5.70312 15.296 5.70312C15.4064 5.70312 15.5125 5.66013 15.5918 5.58325L16.7668 4.39992C16.8072 4.36308 16.8396 4.31836 16.8621 4.2685C16.8845 4.21865 16.8965 4.16472 16.8973 4.11006C16.8981 4.05539 16.8876 4.00115 16.8666 3.95067C16.8456 3.90019 16.8145 3.85456 16.7752 3.81659ZM5.5835 4.39992L4.40016 3.22492C4.36275 3.18506 4.31757 3.15329 4.26741 3.13157C4.21724 3.10986 4.16316 3.09865 4.1085 3.09865C4.05383 3.09865 3.99975 3.10986 3.94958 3.13157C3.89942 3.15329 3.85424 3.18506 3.81683 3.22492L3.22516 3.81659C3.1853 3.85399 3.15354 3.89917 3.13182 3.94934C3.1101 3.9995 3.0989 4.05359 3.0989 4.10825C3.0989 4.16292 3.1101 4.217 3.13182 4.26716C3.15354 4.31733 3.1853 4.36251 3.22516 4.39992L4.40016 5.58325C4.47982 5.66264 4.5877 5.70721 4.70016 5.70721C4.81263 5.70721 4.9205 5.66264 5.00016 5.58325L5.5835 4.99992C5.66288 4.92026 5.70746 4.81238 5.70746 4.69992C5.70746 4.58746 5.66288 4.47958 5.5835 4.39992ZM18.7502 9.16659H17.0835C17.0288 9.16659 16.9746 9.17736 16.924 9.1983C16.8735 9.21924 16.8276 9.24993 16.7889 9.28862C16.7502 9.32732 16.7195 9.37325 16.6985 9.4238C16.6776 9.47435 16.6668 9.52853 16.6668 9.58325V10.4166C16.6668 10.4713 16.6776 10.5255 16.6985 10.576C16.7195 10.6266 16.7502 10.6725 16.7889 10.7112C16.8276 10.7499 16.8735 10.7806 16.924 10.8015C16.9746 10.8225 17.0288 10.8333 17.0835 10.8333H18.7502C18.8049 10.8333 18.8591 10.8225 18.9096 10.8015C18.9602 10.7806 19.0061 10.7499 19.0448 10.7112C19.0835 10.6725 19.1142 10.6266 19.1351 10.576C19.1561 10.5255 19.1668 10.4713 19.1668 10.4166V9.58325C19.1668 9.52853 19.1561 9.47435 19.1351 9.4238C19.1142 9.37325 19.0835 9.32732 19.0448 9.28862C19.0061 9.24993 18.9602 9.21924 18.9096 9.1983C18.8591 9.17736 18.8049 9.16659 18.7502 9.16659ZM2.91683 9.16659H1.25016C1.19545 9.16659 1.14126 9.17736 1.09071 9.1983C1.04016 9.21924 0.994226 9.24993 0.955535 9.28862C0.916844 9.32732 0.886152 9.37325 0.865213 9.4238C0.844273 9.47435 0.833496 9.52853 0.833496 9.58325V10.4166C0.833496 10.4713 0.844273 10.5255 0.865213 10.576C0.886152 10.6266 0.916844 10.6725 0.955535 10.7112C0.994226 10.7499 1.04016 10.7806 1.09071 10.8015C1.14126 10.8225 1.19545 10.8333 1.25016 10.8333H2.91683C2.97155 10.8333 3.02573 10.8225 3.07628 10.8015C3.12683 10.7806 3.17277 10.7499 3.21146 10.7112C3.25015 10.6725 3.28084 10.6266 3.30178 10.576C3.32272 10.5255 3.3335 10.4713 3.3335 10.4166V9.58325C3.3335 9.52853 3.32272 9.47435 3.30178 9.4238C3.28084 9.37325 3.25015 9.32732 3.21146 9.28862C3.17277 9.24993 3.12683 9.21924 3.07628 9.1983C3.02573 9.17736 2.97155 9.16659 2.91683 9.16659Z" fill="currentColor"/>
</svg>
