<svg width="20" height="20" viewBox="0 0 20 20" fill="none" xmlns="http://www.w3.org/2000/svg">
<path fill-rule="evenodd" clip-rule="evenodd" d="M5 5.83337V6.66671H3.33333C3.11232 6.66671 2.90036 6.7545 2.74408 6.91079C2.5878 7.06707 2.5 7.27903 2.5 7.50004V17.5C2.5 17.7211 2.5878 17.933 2.74408 18.0893C2.90036 18.2456 3.11232 18.3334 3.33333 18.3334H16.6667C16.8877 18.3334 17.0996 18.2456 17.2559 18.0893C17.4122 17.933 17.5 17.7211 17.5 17.5V7.50004C17.5 7.27903 17.4122 7.06707 17.2559 6.91079C17.0996 6.7545 16.8877 6.66671 16.6667 6.66671H16V6.67004H12V6.66671H6.66667V5.83337C6.66667 4.94932 7.01786 4.10147 7.64298 3.47635C8.2681 2.85123 9.11594 2.50004 10 2.50004C10.8841 2.50004 11.7319 2.85123 12.357 3.47635C12.6986 3.8179 12.9583 4.22594 13.1237 4.67004H14.8628C14.6497 3.77918 14.1939 2.95617 13.5355 2.29784C12.5979 1.36016 11.3261 0.833374 10 0.833374C8.67392 0.833374 7.40215 1.36016 6.46447 2.29784C5.52678 3.23552 5 4.50729 5 5.83337ZM4.16667 16.6667V8.33337H15.8333V16.6667H4.16667ZM8.4602 12.3045C8.6006 12.6434 8.84893 12.9266 9.16667 13.11V15H10.8333V13.11C11.1511 12.9266 11.3994 12.6434 11.5398 12.3045C11.6802 11.9655 11.7048 11.5897 11.6099 11.2353C11.5149 10.8809 11.3057 10.5678 11.0146 10.3444C10.7235 10.1211 10.3669 10 10 10C9.63311 10 9.27647 10.1211 8.9854 10.3444C8.69432 10.5678 8.48508 10.8809 8.39012 11.2353C8.29517 11.5897 8.3198 11.9655 8.4602 12.3045Z" fill="currentColor"/>
</svg>
