<svg width="20" height="20" viewBox="0 0 20 20" fill="none" xmlns="http://www.w3.org/2000/svg">
<path fill-rule="evenodd" clip-rule="evenodd" d="M17.5 10.4293V2.49996C17.5 2.27895 17.4122 2.06698 17.2559 1.9107C17.0996 1.75442 16.8877 1.66663 16.6667 1.66663H3.33333C3.11232 1.66663 2.90036 1.75442 2.74408 1.9107C2.5878 2.06698 2.5 2.27895 2.5 2.49996V17.5C2.5 17.721 2.5878 17.9329 2.74408 18.0892C2.90036 18.2455 3.11232 18.3333 3.33333 18.3333H11.5038C10.7993 17.9266 10.2033 17.353 9.76968 16.6666H4.16667V3.33329H15.8333V9.3468C16.4609 9.59427 17.0264 9.96505 17.5 10.4293ZM13.3333 5.83329H6.66667V7.49996H13.3333V5.83329ZM10 9.16663H6.66667V10.8333H10V9.16663ZM8.75 12.5H6.66667V14.1666H8.75V12.5Z" fill="#002FA7"/>
<circle cx="14" cy="14" r="3.25" stroke="#002FA7" stroke-width="1.5"/>
<path d="M16.5 16.5L19 19" stroke="#002FA7" stroke-width="1.5"/>
</svg>
