<svg width="20" height="20" viewBox="0 0 20 20" fill="none" xmlns="http://www.w3.org/2000/svg">
<path d="M7 4.3C7 4.13431 7.13431 4 7.3 4H16.45C16.6157 4 16.75 4.13431 16.75 4.3V5.2C16.75 5.36569 16.6157 5.5 16.45 5.5H7.3C7.13431 5.5 7 5.36569 7 5.2V4.3ZM4.375 5.875C4.07663 5.875 3.79048 5.75647 3.5795 5.5455C3.36853 5.33452 3.25 5.04837 3.25 4.75C3.25 4.45163 3.36853 4.16548 3.5795 3.95451C3.79048 3.74353 4.07663 3.625 4.375 3.625C4.67337 3.625 4.95952 3.74353 5.1705 3.95451C5.38147 4.16548 5.5 4.45163 5.5 4.75C5.5 5.04837 5.38147 5.33452 5.1705 5.5455C4.95952 5.75647 4.67337 5.875 4.375 5.875ZM4.375 11.125C4.07663 11.125 3.79048 11.0065 3.5795 10.7955C3.36853 10.5845 3.25 10.2984 3.25 10C3.25 9.70163 3.36853 9.41548 3.5795 9.20451C3.79048 8.99353 4.07663 8.875 4.375 8.875C4.67337 8.875 4.95952 8.99353 5.1705 9.20451C5.38147 9.41548 5.5 9.70163 5.5 10C5.5 10.2984 5.38147 10.5845 5.1705 10.7955C4.95952 11.0065 4.67337 11.125 4.375 11.125ZM4.375 16.3C4.07663 16.3 3.79048 16.1815 3.5795 15.9705C3.36853 15.7595 3.25 15.4734 3.25 15.175C3.25 14.8766 3.36853 14.5905 3.5795 14.3795C3.79048 14.1685 4.07663 14.05 4.375 14.05C4.67337 14.05 4.95952 14.1685 5.1705 14.3795C5.38147 14.5905 5.5 14.8766 5.5 15.175C5.5 15.4734 5.38147 15.7595 5.1705 15.9705C4.95952 16.1815 4.67337 16.3 4.375 16.3ZM7 9.55C7 9.38432 7.13431 9.25 7.3 9.25H14.45C14.6157 9.25 14.75 9.38431 14.75 9.55V10.45C14.75 10.6157 14.6157 10.75 14.45 10.75H7.3C7.13432 10.75 7 10.6157 7 10.45V9.55ZM7 14.8C7 14.6343 7.13431 14.5 7.3 14.5H16.45C16.6157 14.5 16.75 14.6343 16.75 14.8V15.7C16.75 15.8657 16.6157 16 16.45 16H7.3C7.13431 16 7 15.8657 7 15.7V14.8Z" fill="currentColor"/>
</svg>
