<svg width="20" height="20" viewBox="0 0 20 20" fill="none" xmlns="http://www.w3.org/2000/svg">
<path d="M5.37925 15.8333L1.66675 18.75V3.33333C1.66675 3.11232 1.75455 2.90036 1.91083 2.74408C2.06711 2.5878 2.27907 2.5 2.50008 2.5H17.5001C17.7211 2.5 17.9331 2.5878 18.0893 2.74408C18.2456 2.90036 18.3334 3.11232 18.3334 3.33333V15C18.3334 15.221 18.2456 15.433 18.0893 15.5893C17.9331 15.7455 17.7211 15.8333 17.5001 15.8333H5.37925ZM4.80258 14.1667H16.6667V4.16667H3.33341V15.3208L4.80258 14.1667ZM9.16675 8.33333H10.8334V10H9.16675V8.33333ZM5.83341 8.33333H7.50008V10H5.83341V8.33333ZM12.5001 8.33333H14.1667V10H12.5001V8.33333Z" fill="currentColor"/>
</svg>
