<svg width="20" height="20" viewBox="0 0 20 20" fill="none" xmlns="http://www.w3.org/2000/svg">
<path d="M12 3.32997H13.0056L13.0011 1.66663H3.33333C3.11232 1.66663 2.90036 1.75442 2.74408 1.9107C2.5878 2.06698 2.5 2.27895 2.5 2.49996V12.999C2.5 13.22 2.5878 13.432 2.74408 13.5883C2.90036 13.7445 3.11232 13.8323 3.33333 13.8323H10.236V15.25L13.2532 13L10.236 10.75V12.1657H4.16667V3.33329H12V3.32997Z" fill="#002FA7"/>
<path d="M5.83333 10.75H7.5V6.66663H15.8317L15.8333 16.6666H7.5V15.25H5.83333V17.5C5.83333 17.96 6.20833 18.3333 6.6725 18.3333H16.6608C16.7707 18.334 16.8797 18.3129 16.9814 18.2713C17.0831 18.2297 17.1756 18.1685 17.2536 18.091C17.3316 18.0136 17.3935 17.9215 17.4358 17.8201C17.4781 17.7186 17.4999 17.6099 17.5 17.5L17.4975 5.83329C17.4975 5.37329 17.1225 4.99996 16.6592 4.99996H5.83333V10.75Z" fill="#002FA7"/>
</svg>
