<svg width="20" height="20" viewBox="0 0 20 20" fill="none" xmlns="http://www.w3.org/2000/svg">
<rect x="3" y="4" width="1.5" height="12" rx="0.3" fill="#002FA7"/>
<rect x="11" y="4" width="1.5" height="12" rx="0.3" fill="#002FA7"/>
<rect x="4" y="9" width="8" height="1.5" fill="#002FA7"/>
<path d="M15.5859 12.2227C15.5859 12.2148 15.582 12.1875 15.582 12.1758C15.582 11.7266 15.9023 11.332 16.4453 11.332C16.9297 11.332 17.293 11.6523 17.293 12.1289C17.293 12.5859 16.9766 12.9336 16.6914 13.25L14.7383 15.4102V16H18.332V15.2188H16.0312V15.1953L17.3086 13.7383C17.7773 13.2031 18.2344 12.7578 18.2344 12.0469C18.2344 11.1992 17.5352 10.5625 16.4648 10.5625C15.2695 10.5625 14.6836 11.3672 14.6836 12.1797V12.2227H15.5859Z" fill="#002FA7"/>
</svg>
