<svg width="20" height="20" viewBox="0 0 20 20" fill="none" xmlns="http://www.w3.org/2000/svg">
<rect x="3" y="4" width="1.5" height="12" rx="0.3" fill="currentColor"/>
<rect x="11" y="4" width="1.5" height="12" rx="0.3" fill="currentColor"/>
<rect x="4" y="9" width="8" height="1.5" fill="currentColor"/>
<path d="M15.8711 13.625H16.4375C17.0938 13.625 17.4688 13.9766 17.4766 14.4766C17.4805 14.9766 17.1016 15.3516 16.4453 15.3516C15.8242 15.3516 15.4844 14.9961 15.4336 14.5469H14.5586C14.582 15.3906 15.1758 16.1094 16.418 16.1094C17.543 16.1094 18.4375 15.4609 18.4219 14.5078C18.4102 13.6523 17.7578 13.2617 17.2773 13.2227V13.1914C17.6875 13.1328 18.2578 12.6953 18.2422 11.9414C18.2266 11.1445 17.4961 10.5625 16.4531 10.5625C15.3008 10.5625 14.6875 11.2773 14.668 12.082H15.5547C15.5781 11.7188 15.8438 11.3086 16.4297 11.3086C16.9609 11.3086 17.3047 11.6289 17.3086 12.0742C17.3125 12.543 16.9453 12.8789 16.4062 12.8789H15.8711V13.625Z" fill="currentColor"/>
</svg>
