<svg width="20" height="20" viewBox="0 0 20 20" fill="none"
  xmlns="http://www.w3.org/2000/svg">
  <path d="M4.621 16.75L4.606 16.765L4.59025 16.75H3.244C3.04661 16.7498 2.85737 16.6712 2.71787 16.5316C2.57836 16.392 2.5 16.2026 2.5 16.0052V3.99475C2.50137 3.79778 2.58018 3.60926 2.71938 3.46991C2.85859 3.33056 3.04704 3.25157 3.244 3.25H16.756C17.167 3.25 17.5 3.58375 17.5 3.99475V16.0052C17.4986 16.2022 17.4198 16.3907 17.2806 16.5301C17.1414 16.6694 16.953 16.7484 16.756 16.75H4.621ZM16 12.25V4.75H4V15.25L11.5 7.75L16 12.25ZM16 14.371L11.5 9.871L6.121 15.25H16V14.371ZM7 9.25C6.60218 9.25 6.22064 9.09196 5.93934 8.81066C5.65804 8.52936 5.5 8.14782 5.5 7.75C5.5 7.35218 5.65804 6.97064 5.93934 6.68934C6.22064 6.40804 6.60218 6.25 7 6.25C7.39782 6.25 7.77936 6.40804 8.06066 6.68934C8.34196 6.97064 8.5 7.35218 8.5 7.75C8.5 8.14782 8.34196 8.52936 8.06066 8.81066C7.77936 9.09196 7.39782 9.25 7 9.25Z" fill="currentColor"/>
</svg>
