<svg width="20" height="20" viewBox="0 0 20 20" fill="none"
  xmlns="http://www.w3.org/2000/svg">
  <path fill-rule="evenodd" clip-rule="evenodd" d="M12 3.33329H4.66667V11.67H3V2.49329C3 2.03663 3.3725 1.66663 3.8325 1.66663H12.8333L17 5.83329V17.4941C17.0008 17.6036 16.98 17.7121 16.9388 17.8135C16.8976 17.9149 16.8369 18.0072 16.7601 18.0851C16.6832 18.163 16.5918 18.225 16.491 18.2676C16.3902 18.3102 16.2819 18.3325 16.1725 18.3333H9.5V16.6666H15.3333V6.66663H12V3.33329ZM6.5 15.375H2.5L2.5 13.625H6.5V11L10.5 14.5L6.5 18V15.375Z" fill="currentColor"/>
</svg>
