<svg width="20" height="20" viewBox="0 0 20 20" fill="none" xmlns="http://www.w3.org/2000/svg">
<path d="M15.5 9.33337L15.5 7.66671L3.33325 7.66671L3.33325 3.66671L16.6666 3.66671L16.6666 7.66671L14.9999 7.66671L14.9999 9.33337L17.4999 9.33337C17.7209 9.33337 17.9329 9.24558 18.0892 9.0893C18.2455 8.93302 18.3333 8.72105 18.3333 8.50004L18.3333 2.83337C18.3333 2.61236 18.2455 2.4004 18.0892 2.24412C17.9329 2.08784 17.7209 2.00004 17.4999 2.00004L2.49992 2.00004C2.2789 2.00004 2.06694 2.08784 1.91066 2.24412C1.75438 2.4004 1.66658 2.61236 1.66658 2.83337L1.66658 8.50004C1.66658 8.72106 1.75438 8.93302 1.91066 9.0893C2.06694 9.24558 2.2789 9.33337 2.49992 9.33337L15.5 9.33337Z" fill="#002FA7"/>
<path d="M4.99984 18.0034L2.49984 18.0034C2.27882 18.0034 2.06686 17.9156 1.91058 17.7593C1.7543 17.603 1.6665 17.391 1.6665 17.17L1.6665 11.5034C1.6665 11.2823 1.7543 11.0704 1.91058 10.9141C2.06686 10.7578 2.27882 10.67 2.49984 10.67H4.99984V12.3367H3.33317L3.33317 16.3367L4.99984 16.3367V18.0034Z" fill="#002FA7"/>
<path d="M14.9998 16.3367L16.6665 16.3367V12.3367H14.9998V10.67H17.4998C17.7209 10.67 17.9328 10.7578 18.0891 10.9141C18.2454 11.0704 18.3332 11.2823 18.3332 11.5034V17.17C18.3332 17.391 18.2454 17.603 18.0891 17.7593C17.9328 17.9156 17.7209 18.0034 17.4998 18.0034L14.9998 18.0034V16.3367Z" fill="#002FA7"/>
<path d="M9.16504 17.0034H10.835V11.6734H9.16504V17.0034Z" fill="#002FA7"/>
<path d="M12.665 15.1733L12.665 13.5033L7.33504 13.5033L7.33504 15.1733L12.665 15.1733Z" fill="#002FA7"/>
</svg>
