<svg width="20" height="20" viewBox="0 0 20 20" fill="none" xmlns="http://www.w3.org/2000/svg">
<path d="M15.5 10.67L15.5 12.3367L3.33325 12.3367L3.33325 16.3367L16.6666 16.3367L16.6666 12.3367L14.9999 12.3367L14.9999 10.67L17.4999 10.67C17.7209 10.67 17.9329 10.7578 18.0892 10.9141C18.2455 11.0704 18.3333 11.2824 18.3333 11.5034L18.3333 17.17C18.3333 17.3911 18.2455 17.603 18.0892 17.7593C17.9329 17.9156 17.7209 18.0034 17.4999 18.0034L2.49992 18.0034C2.2789 18.0034 2.06694 17.9156 1.91066 17.7593C1.75438 17.603 1.66658 17.3911 1.66658 17.17L1.66658 11.5034C1.66658 11.2824 1.75438 11.0704 1.91066 10.9141C2.06694 10.7578 2.2789 10.67 2.49992 10.67L15.5 10.67Z" fill="#002FA7"/>
<path d="M4.99984 2L2.49984 2C2.27882 2 2.06686 2.0878 1.91058 2.24408C1.7543 2.40036 1.6665 2.61232 1.6665 2.83333L1.6665 8.5C1.6665 8.72101 1.7543 8.93298 1.91058 9.08926C2.06686 9.24554 2.27882 9.33333 2.49984 9.33333H4.99984V7.66667H3.33317L3.33317 3.66667L4.99984 3.66667V2Z" fill="#002FA7"/>
<path d="M14.9998 3.66667L16.6665 3.66667V7.66667H14.9998V9.33333H17.4998C17.7209 9.33333 17.9328 9.24554 18.0891 9.08926C18.2454 8.93298 18.3332 8.72101 18.3332 8.5V2.83333C18.3332 2.61232 18.2454 2.40036 18.0891 2.24408C17.9328 2.0878 17.7209 2 17.4998 2L14.9998 2V3.66667Z" fill="#002FA7"/>
<path d="M9.16504 3H10.835V8.33H9.16504V3Z" fill="#002FA7"/>
<path d="M12.665 4.82996L12.665 6.49996L7.33504 6.49996L7.33504 4.82996L12.665 4.82996Z" fill="#002FA7"/>
</svg>
