<svg width="20" height="20" viewBox="0 0 20 20" fill="none" xmlns="http://www.w3.org/2000/svg">
<path d="M9.56662 6.66668C11.7094 6.63259 13.7883 7.39587 15.4 8.80835L17.4166 6.79168C17.4848 6.72013 17.5766 6.67572 17.675 6.66668H17.9166C17.9713 6.66668 18.0255 6.67746 18.0761 6.6984C18.1266 6.71934 18.1726 6.75003 18.2112 6.78872C18.2499 6.82741 18.2806 6.87335 18.3016 6.9239C18.3225 6.97445 18.3333 7.02863 18.3333 7.08335V12.9167C18.3333 12.9714 18.3225 13.0256 18.3016 13.0761C18.2806 13.1267 18.2499 13.1726 18.2112 13.2113C18.1726 13.25 18.1266 13.2807 18.0761 13.3016C18.0255 13.3226 17.9713 13.3334 17.9166 13.3334H12.0833C12.0286 13.3334 11.9744 13.3226 11.9238 13.3016C11.8733 13.2807 11.8273 13.25 11.7887 13.2113C11.75 13.1726 11.7193 13.1267 11.6983 13.0761C11.6774 13.0256 11.6666 12.9714 11.6666 12.9167V12.675C11.6658 12.6191 11.6765 12.5636 11.698 12.512C11.7195 12.4604 11.7514 12.4138 11.7916 12.375L13.8916 10.275C12.6793 9.26475 11.1445 8.72355 9.56662 8.75002C6.50829 8.75002 3.99162 10.6084 3.73329 12.9584C3.72503 13.0593 3.67951 13.1537 3.60559 13.223C3.53166 13.2923 3.4346 13.3316 3.33329 13.3334H2.08329C2.02565 13.3335 1.9686 13.3218 1.91574 13.2988C1.86289 13.2758 1.81538 13.2421 1.77622 13.1998C1.73706 13.1575 1.7071 13.1075 1.68823 13.0531C1.66937 12.9986 1.66201 12.9408 1.66662 12.8833C1.94162 9.40835 5.37495 6.66668 9.56662 6.66668Z" fill="currentColor"/>
</svg>
