<svg width="20" height="20" viewBox="0 0 20 20" fill="none" xmlns="http://www.w3.org/2000/svg">
<path d="M7 4.3C7 4.13431 7.13431 4 7.3 4H16.45C16.6157 4 16.75 4.13431 16.75 4.3V5.2C16.75 5.36569 16.6157 5.5 16.45 5.5H7.3C7.13431 5.5 7 5.36569 7 5.2V4.3ZM4.75 3.25V5.5H5.5V6.25H3.25V5.5H4V4H3.25V3.25H4.75ZM3.25 11.5V9.625H4.75V9.25H3.25V8.5H5.5V10.375H4V10.75H5.5V11.5H3.25ZM4.75 15.625H3.25V14.875H4.75V14.5H3.25V13.75H5.5V16.75H3.25V16H4.75V15.625ZM7 9.55C7 9.38431 7.13431 9.25 7.3 9.25H16.45C16.6157 9.25 16.75 9.38431 16.75 9.55V10.45C16.75 10.6157 16.6157 10.75 16.45 10.75H7.3C7.13431 10.75 7 10.6157 7 10.45V9.55ZM7 14.8C7 14.6343 7.13431 14.5 7.3 14.5H16.45C16.6157 14.5 16.75 14.6343 16.75 14.8V15.7C16.75 15.8657 16.6157 16 16.45 16H7.3C7.13431 16 7 15.8657 7 15.7V14.8Z" fill="currentColor"/>
</svg>

