<svg width="20" height="20" viewBox="0 0 20 20" fill="none"
  xmlns="http://www.w3.org/2000/svg">
  <path fill-rule="evenodd" clip-rule="evenodd" d="M4.75 15.25V4.75H15.25V15.25H4.75ZM16 3.25H4C3.80109 3.25 3.61032 3.32902 3.46967 3.46967C3.32902 3.61032 3.25 3.80109 3.25 4V16C3.25 16.1989 3.32902 16.3897 3.46967 16.5303C3.61032 16.671 3.80109 16.75 4 16.75H16C16.1989 16.75 16.3897 16.671 16.5303 16.5303C16.671 16.3897 16.75 16.1989 16.75 16V4C16.75 3.80109 16.671 3.61032 16.5303 3.46967C16.3897 3.32902 16.1989 3.25 16 3.25ZM8.803 7.903V12.097H10.2913L9.74168 11.4704L10.8717 10.4793L11.197 10.8503V7.903H8.803ZM8.2 13.6H11.6094L12.3874 14.4871L13.5174 13.496L12.7 12.564V7.3C12.7 6.80294 12.2971 6.4 11.8 6.4H8.2C7.70294 6.4 7.3 6.80294 7.3 7.3V12.7C7.3 13.1971 7.70294 13.6 8.2 13.6Z" fill="#002FA7"/>
</svg>
