<svg width="20" height="20" viewBox="0 0 20 20" fill="none" xmlns="http://www.w3.org/2000/svg">
<path d="M7 4.3C7 4.13431 7.13431 4 7.3 4H16.45C16.6157 4 16.75 4.13431 16.75 4.3V5.2C16.75 5.36569 16.6157 5.5 16.45 5.5H7.3C7.13431 5.5 7 5.36569 7 5.2V4.3ZM7 9.55C7 9.38432 7.13431 9.25 7.3 9.25H14.45C14.6157 9.25 14.75 9.38431 14.75 9.55V10.45C14.75 10.6157 14.6157 10.75 14.45 10.75H7.3C7.13431 10.75 7 10.6157 7 10.45V9.55ZM7 14.8C7 14.6343 7.13431 14.5 7.3 14.5H16.45C16.6157 14.5 16.75 14.6343 16.75 14.8V15.7C16.75 15.8657 16.6157 16 16.45 16H7.3C7.13431 16 7 15.8657 7 15.7V14.8Z" fill="#002FA7"/>
<rect x="3.5" y="3" width="1.5" height="14" rx="0.75" fill="#002FA7"/>
</svg>
