<svg width="20" height="20" viewBox="0 0 20 20" fill="none" xmlns="http://www.w3.org/2000/svg">
<path d="M10.0001 2.5C14.4934 2.5 18.2318 5.73333 19.0159 10C18.2326 14.2667 14.4934 17.5 10.0001 17.5C5.50675 17.5 1.76842 14.2667 0.984253 10C1.76759 5.73333 5.50675 2.5 10.0001 2.5ZM10.0001 15.8333C11.6996 15.833 13.3487 15.2557 14.6775 14.196C16.0062 13.1363 16.9358 11.6569 17.3143 10C16.9345 8.34442 16.0042 6.86667 14.6756 5.80836C13.347 4.75004 11.6987 4.17377 10.0001 4.17377C8.3015 4.17377 6.65316 4.75004 5.32457 5.80836C3.99597 6.86667 3.06573 8.34442 2.68592 10C3.06433 11.6569 3.99398 13.1363 5.32271 14.196C6.65143 15.2557 8.30053 15.833 10.0001 15.8333ZM10.0001 13.75C9.00553 13.75 8.0517 13.3549 7.34844 12.6517C6.64518 11.9484 6.25009 10.9946 6.25009 10C6.25009 9.00544 6.64518 8.05161 7.34844 7.34835C8.0517 6.64509 9.00553 6.25 10.0001 6.25C10.9946 6.25 11.9485 6.64509 12.6517 7.34835C13.355 8.05161 13.7501 9.00544 13.7501 10C13.7501 10.9946 13.355 11.9484 12.6517 12.6517C11.9485 13.3549 10.9946 13.75 10.0001 13.75ZM10.0001 12.0833C10.2737 12.0833 10.5446 12.0294 10.7973 11.9247C11.0501 11.8201 11.2798 11.6666 11.4732 11.4731C11.6667 11.2797 11.8201 11.05 11.9248 10.7973C12.0295 10.5445 12.0834 10.2736 12.0834 10C12.0834 9.72641 12.0295 9.4555 11.9248 9.20274C11.8201 8.94998 11.6667 8.72032 11.4732 8.52686C11.2798 8.33341 11.0501 8.17995 10.7973 8.07525C10.5446 7.97055 10.2737 7.91667 10.0001 7.91667C9.44755 7.91667 8.91765 8.13616 8.52695 8.52686C8.13625 8.91756 7.91675 9.44747 7.91675 10C7.91675 10.5525 8.13625 11.0824 8.52695 11.4731C8.91765 11.8638 9.44755 12.0833 10.0001 12.0833Z" fill="#002FA7"/>
</svg>
