<svg width="20" height="20" viewBox="0 0 20 20" fill="none" xmlns="http://www.w3.org/2000/svg">
<path d="M9.43445 12.25H4.56545L3.06545 16H1.44995L6.24995 4H7.74995L12.55 16H10.9345L9.43445 12.25ZM8.83445 10.75L6.99995 6.16375L5.16545 10.75H8.83445ZM16.75 10.4012V10H18.25V16H16.75V15.5987C16.2939 15.8618 15.7766 16.0002 15.2501 16C14.7236 15.9998 14.2064 15.8611 13.7505 15.5977C13.2946 15.3344 12.9161 14.9557 12.6529 14.4997C12.3897 14.0437 12.2511 13.5265 12.2511 13C12.2511 12.4735 12.3897 11.9563 12.6529 11.5003C12.9161 11.0443 13.2946 10.6656 13.7505 10.4023C14.2064 10.1389 14.7236 10.0002 15.2501 10C15.7766 9.99982 16.2939 10.1382 16.75 10.4012ZM15.25 14.5C15.4469 14.5 15.642 14.4612 15.824 14.3858C16.006 14.3104 16.1713 14.1999 16.3106 14.0607C16.4499 13.9214 16.5604 13.756 16.6358 13.574C16.7112 13.392 16.75 13.197 16.75 13C16.75 12.803 16.7112 12.608 16.6358 12.426C16.5604 12.244 16.4499 12.0786 16.3106 11.9393C16.1713 11.8001 16.006 11.6896 15.824 11.6142C15.642 11.5388 15.4469 11.5 15.25 11.5C14.8521 11.5 14.4706 11.658 14.1893 11.9393C13.908 12.2206 13.75 12.6022 13.75 13C13.75 13.3978 13.908 13.7794 14.1893 14.0607C14.4706 14.342 14.8521 14.5 15.25 14.5Z" fill="currentColor"/>
</svg>
