<svg width="20" height="20" viewBox="0 0 20 20" fill="none" xmlns="http://www.w3.org/2000/svg">
<rect x="3.75" y="3.75" width="12.5" height="12.5" rx="2.25" stroke="currentColor" stroke-width="1.5"/>
<path d="M8.38974 12.9669C8.33621 12.945 8.28799 12.913 8.24807 12.8729L6.13153 10.8854C6.08985 10.8464 6.05677 10.8 6.0342 10.7489C6.01162 10.6978 6 10.643 6 10.5876C6 10.5323 6.01162 10.4775 6.0342 10.4264C6.05677 10.3753 6.08985 10.3289 6.13153 10.2899L6.60286 9.84544C6.64278 9.80533 6.691 9.77336 6.74453 9.7515C6.79806 9.72965 6.85578 9.71837 6.91411 9.71837C6.97245 9.71837 7.03017 9.72965 7.0837 9.7515C7.13723 9.77336 7.18545 9.80533 7.22537 9.84544L8.55933 11.095L12.7746 7.11987C12.8577 7.04303 12.9695 7 13.0859 7C13.2023 7 13.314 7.04303 13.3971 7.11987L13.8685 7.56434C13.9101 7.60333 13.9432 7.6497 13.9658 7.7008C13.9884 7.7519 14 7.80671 14 7.86206C14 7.91742 13.9884 7.97222 13.9658 8.02332C13.9432 8.07442 13.9101 8.1208 13.8685 8.15978L8.87058 12.8729C8.83066 12.913 8.78245 12.945 8.72891 12.9669C8.67538 12.9887 8.61766 13 8.55933 13C8.50099 13 8.44328 12.9887 8.38974 12.9669Z" fill="currentColor"/>
</svg>
