<svg width="20" height="20" viewBox="0 0 20 20" fill="none"
  xmlns="http://www.w3.org/2000/svg">
  <path d="M12.5 3.33329H4.16667V16.6666H15.8333V6.66663H12.5V3.33329ZM2.5 2.49329C2.5 2.03663 2.8725 1.66663 3.3325 1.66663H13.3333L17.5 5.83329V17.4941C17.5008 17.6036 17.48 17.7121 17.4388 17.8135C17.3976 17.9149 17.3369 18.0072 17.2601 18.0851C17.1832 18.163 17.0918 18.225 16.991 18.2676C16.8901 18.3102 16.7819 18.3325 16.6725 18.3333H3.3275C3.10865 18.3318 2.89918 18.2442 2.74435 18.0895C2.58951 17.9349 2.50175 17.7255 2.5 17.5066V2.49329ZM10.8333 9.99996V13.3333H9.16667V9.99996H6.66667L10 6.66663L13.3333 9.99996H10.8333Z" fill="currentColor"/>
</svg>
