<svg width="20" height="20" viewBox="0 0 20 20" fill="none" xmlns="http://www.w3.org/2000/svg">
<rect x="2.5" y="2.5" width="15" height="15" rx="3.5" stroke="#DEDEDE"/>
<path d="M7.98718 13.9558C7.92026 13.9267 7.85999 13.8841 7.81009 13.8306L5.16441 11.1805C5.11231 11.1285 5.07096 11.0667 5.04275 10.9985C5.01453 10.9304 5 10.8573 5 10.7835C5 10.7097 5.01453 10.6366 5.04275 10.5685C5.07096 10.5004 5.11231 10.4385 5.16441 10.3866L5.75357 9.79392C5.80347 9.74044 5.86374 9.69781 5.93066 9.66867C5.99758 9.63953 6.06972 9.6245 6.14264 9.6245C6.21556 9.6245 6.28771 9.63953 6.35463 9.66867C6.42154 9.69781 6.48181 9.74044 6.53171 9.79392L8.19916 11.46L13.4683 6.15982C13.5722 6.05738 13.7119 6 13.8574 6C14.0028 6 14.1425 6.05738 14.2464 6.15982L14.8356 6.75246C14.8877 6.80443 14.929 6.86627 14.9573 6.9344C14.9855 7.00253 15 7.07561 15 7.14941C15 7.22322 14.9855 7.2963 14.9573 7.36443C14.929 7.43256 14.8877 7.4944 14.8356 7.54637L8.58823 13.8306C8.53833 13.8841 8.47806 13.9267 8.41114 13.9558C8.34422 13.985 8.27208 14 8.19916 14C8.12624 14 8.05409 13.985 7.98718 13.9558Z" fill="#333333"/>
</svg>
