<svg width="20" height="20" viewBox="0 0 20 20" fill="none" xmlns="http://www.w3.org/2000/svg">
<path d="M15.5899 9.39992C15.7072 9.51702 15.7731 9.67588 15.7732 9.84158L15.7732 10.1583C15.7713 10.3236 15.7056 10.4818 15.5899 10.5999L11.3066 14.8749C11.2678 14.914 11.2218 14.945 11.171 14.9661C11.1202 14.9873 11.0658 14.9982 11.0107 14.9982C10.9557 14.9982 10.9013 14.9873 10.8505 14.9661C10.7997 14.945 10.7536 14.914 10.7149 14.8749L10.1232 14.2833C10.0844 14.2452 10.0536 14.1999 10.0326 14.1498C10.0115 14.0997 10.0007 14.0459 10.0007 13.9916C10.0007 13.9373 10.0115 13.8835 10.0326 13.8334C10.0536 13.7833 10.0844 13.7379 10.1232 13.6999L13.8316 9.99992L10.1232 6.29992C10.0842 6.26118 10.0532 6.2151 10.032 6.16432C10.0109 6.11355 10 6.05909 10 6.00408C10 5.94908 10.0109 5.89462 10.032 5.84384C10.0532 5.79307 10.0842 5.74698 10.1232 5.70825L10.7149 5.12492C10.7536 5.08586 10.7997 5.05486 10.8505 5.03371C10.9013 5.01256 10.9557 5.00167 11.0107 5.00167C11.0658 5.00167 11.1202 5.01256 11.171 5.03371C11.2218 5.05486 11.2678 5.08586 11.3066 5.12492L15.5899 9.39992Z" fill="currentColor"/>
<path d="M10.0899 9.39821C10.2072 9.51531 10.2731 9.67417 10.2732 9.83987L10.2732 10.1565C10.2713 10.3219 10.2056 10.4801 10.0899 10.5982L5.80658 14.8732C5.76785 14.9123 5.72176 14.9433 5.67099 14.9644C5.62021 14.9856 5.56575 14.9965 5.51075 14.9965C5.45574 14.9965 5.40128 14.9856 5.35051 14.9644C5.29973 14.9433 5.25365 14.9123 5.21492 14.8732L4.62325 14.2815C4.58445 14.2435 4.55362 14.1981 4.53257 14.1481C4.51153 14.098 4.50069 14.0442 4.50069 13.9899C4.50069 13.9356 4.51153 13.8818 4.53257 13.8317C4.55362 13.7816 4.58445 13.7362 4.62325 13.6982L8.33158 9.99821L4.62325 6.29821C4.5842 6.25947 4.5532 6.21339 4.53204 6.16261C4.51089 6.11184 4.5 6.05738 4.5 6.00237C4.5 5.94737 4.51089 5.89291 4.53204 5.84213C4.5532 5.79136 4.5842 5.74527 4.62325 5.70654L5.21491 5.12321C5.25365 5.08415 5.29973 5.05316 5.35051 5.032C5.40128 5.01085 5.45574 4.99996 5.51075 4.99996C5.56575 4.99996 5.62021 5.01085 5.67099 5.032C5.72176 5.05316 5.76785 5.08415 5.80658 5.12321L10.0899 9.39821Z" fill="currentColor"/>
</svg>
