<svg width="20" height="20" viewBox="0 0 20 20" fill="none" xmlns="http://www.w3.org/2000/svg">
<path d="M10.6001 13.15C10.483 13.2672 10.3241 13.3332 10.1584 13.3333H9.84175C9.6764 13.3314 9.51818 13.2657 9.40008 13.15L5.12508 8.86664C5.08603 8.82791 5.05503 8.78182 5.03388 8.73105C5.01272 8.68027 5.00183 8.62581 5.00183 8.57081C5.00183 8.5158 5.01272 8.46134 5.03388 8.41057C5.05503 8.35979 5.08603 8.31371 5.12508 8.27497L5.71675 7.68331C5.75477 7.6445 5.80015 7.61368 5.85023 7.59263C5.90031 7.57159 5.95409 7.56075 6.00841 7.56075C6.06274 7.56075 6.11652 7.57159 6.1666 7.59263C6.21668 7.61368 6.26206 7.6445 6.30008 7.68331L10.0001 11.3916L13.7001 7.68331C13.7388 7.64425 13.7849 7.61326 13.8357 7.5921C13.8865 7.57095 13.9409 7.56006 13.9959 7.56006C14.0509 7.56006 14.1054 7.57095 14.1562 7.5921C14.2069 7.61326 14.253 7.64425 14.2918 7.68331L14.8751 8.27497C14.9141 8.31371 14.9451 8.35979 14.9663 8.41057C14.9874 8.46134 14.9983 8.5158 14.9983 8.57081C14.9983 8.62581 14.9874 8.68027 14.9663 8.73105C14.9451 8.78182 14.9141 8.82791 14.8751 8.86664L10.6001 13.15Z" fill="#BABABA"/>
</svg>
