<svg width="20" height="20" viewBox="0 0 20 20" fill="none" xmlns="http://www.w3.org/2000/svg">
<path d="M14.3083 16.7332C14.3474 16.772 14.3784 16.818 14.3995 16.8688C14.4207 16.9196 14.4316 16.974 14.4316 17.0291C14.4316 17.0841 14.4207 17.1385 14.3995 17.1893C14.3784 17.2401 14.3474 17.2861 14.3083 17.3249L13.425 18.2082C13.3876 18.2481 13.3424 18.2798 13.2922 18.3016C13.2421 18.3233 13.188 18.3345 13.1333 18.3345C13.0787 18.3345 13.0246 18.3233 12.9744 18.3016C12.9243 18.2798 12.8791 18.2481 12.8417 18.2082L5.18333 10.5499C5.06609 10.4328 5.00015 10.2739 5 10.1082V9.89155C5.00015 9.72585 5.06609 9.56698 5.18333 9.44988L12.8417 1.79155C12.8791 1.75169 12.9243 1.71992 12.9744 1.6982C13.0246 1.67649 13.0787 1.66528 13.1333 1.66528C13.188 1.66528 13.2421 1.67649 13.2922 1.6982C13.3424 1.71992 13.3876 1.75169 13.425 1.79155L14.3083 2.67488C14.3474 2.71362 14.3784 2.7597 14.3995 2.81048C14.4207 2.86125 14.4316 2.91571 14.4316 2.97072C14.4316 3.02572 14.4207 3.08018 14.3995 3.13096C14.3784 3.18173 14.3474 3.22781 14.3083 3.26655L7.575 9.99988L14.3083 16.7332Z" fill="#002FA7"/>
</svg>
