<svg width="20" height="20" viewBox="0 0 20 20" fill="none" xmlns="http://www.w3.org/2000/svg">
<path d="M5.69167 16.7332C5.65261 16.772 5.62162 16.818 5.60046 16.8688C5.57931 16.9196 5.56842 16.974 5.56842 17.0291C5.56842 17.0841 5.57931 17.1385 5.60046 17.1893C5.62162 17.2401 5.65261 17.2861 5.69167 17.3249L6.575 18.2082C6.61241 18.2481 6.65759 18.2798 6.70775 18.3016C6.75792 18.3233 6.812 18.3345 6.86667 18.3345C6.92133 18.3345 6.97541 18.3233 7.02558 18.3016C7.07574 18.2798 7.12092 18.2481 7.15833 18.2082L14.8167 10.5499C14.9339 10.4328 14.9999 10.2739 15 10.1082V9.89155C14.9999 9.72585 14.9339 9.56698 14.8167 9.44988L7.15833 1.79155C7.12092 1.75169 7.07574 1.71992 7.02558 1.6982C6.97541 1.67649 6.92133 1.66528 6.86667 1.66528C6.812 1.66528 6.75792 1.67649 6.70775 1.6982C6.65759 1.71992 6.61241 1.75169 6.575 1.79155L5.69167 2.67488C5.65261 2.71362 5.62162 2.7597 5.60046 2.81048C5.57931 2.86125 5.56842 2.91571 5.56842 2.97072C5.56842 3.02572 5.57931 3.08018 5.60046 3.13096C5.62162 3.18173 5.65261 3.22781 5.69167 3.26655L12.425 9.99988L5.69167 16.7332Z" fill="currentColor"/>
</svg>
