<svg width="20" height="20" viewBox="0 0 20 20" fill="none" xmlns="http://www.w3.org/2000/svg">
<path d="M9.21662 6.55012C9.17789 6.51107 9.13181 6.48007 9.08103 6.45892C9.03026 6.43776 8.9758 6.42687 8.92079 6.42687C8.86579 6.42687 8.81133 6.43776 8.76055 6.45892C8.70978 6.48007 8.66369 6.51107 8.62496 6.55012L8.45829 6.71679C8.41803 6.75557 8.38616 6.80221 8.36466 6.85382C8.34316 6.90542 8.33248 6.96089 8.33329 7.01679L8.33329 12.9834C8.33248 13.0393 8.34316 13.0948 8.36466 13.1464C8.38616 13.198 8.41803 13.2447 8.45829 13.2834L8.62496 13.4501C8.66369 13.4892 8.70978 13.5202 8.76055 13.5413C8.81133 13.5625 8.86579 13.5734 8.92079 13.5734C8.9758 13.5734 9.03026 13.5625 9.08103 13.5413C9.13181 13.5202 9.17789 13.4892 9.21662 13.4501L12.375 10.2918C12.4148 10.2544 12.4466 10.2092 12.4683 10.159C12.49 10.1089 12.5012 10.0548 12.5012 10.0001C12.5012 9.94546 12.49 9.89137 12.4683 9.84121C12.4466 9.79104 12.4148 9.74586 12.375 9.70845L9.21662 6.55012Z" fill="#002FA7"/>
</svg>
