<svg width="20" height="20" viewBox="0 0 20 20" fill="none" xmlns="http://www.w3.org/2000/svg">
<path d="M9.39996 3.41331C9.51706 3.29607 9.67592 3.23013 9.84163 3.22998H10.1583C10.3236 3.2319 10.4819 3.29758 10.6 3.41331L14.875 7.69665C14.914 7.73538 14.945 7.78147 14.9662 7.83224C14.9873 7.88302 14.9982 7.93748 14.9982 7.99248C14.9982 8.04749 14.9873 8.10195 14.9662 8.15272C14.945 8.2035 14.914 8.24958 14.875 8.28832L14.2833 8.87998C14.2453 8.91879 14.1999 8.94961 14.1498 8.97066C14.0997 8.9917 14.0459 9.00254 13.9916 9.00254C13.9373 9.00254 13.8835 8.9917 13.8334 8.97066C13.7834 8.94961 13.738 8.91879 13.7 8.87998L9.99996 5.17165L6.29996 8.87998C6.26122 8.91904 6.21514 8.95004 6.16437 8.97119C6.11359 8.99234 6.05913 9.00323 6.00412 9.00323C5.94912 9.00323 5.89466 8.99234 5.84389 8.97119C5.79311 8.95004 5.74703 8.91904 5.70829 8.87998L5.12496 8.28832C5.0859 8.24958 5.05491 8.2035 5.03375 8.15272C5.0126 8.10195 5.00171 8.04749 5.00171 7.99248C5.00171 7.93748 5.0126 7.88302 5.03375 7.83224C5.05491 7.78147 5.0859 7.73538 5.12496 7.69665L9.39996 3.41331Z" fill="currentColor"/>
<path d="M9.39825 16.5899C9.51535 16.7071 9.67421 16.773 9.83992 16.7732H10.1566C10.3219 16.7713 10.4801 16.7056 10.5982 16.5899L14.8732 12.3065C14.9123 12.2678 14.9433 12.2217 14.9645 12.1709C14.9856 12.1202 14.9965 12.0657 14.9965 12.0107C14.9965 11.9557 14.9856 11.9012 14.9645 11.8505C14.9433 11.7997 14.9123 11.7536 14.8732 11.7149L14.2816 11.1232C14.2436 11.0844 14.1982 11.0536 14.1481 11.0325C14.098 11.0115 14.0442 11.0006 13.9899 11.0006C13.9356 11.0006 13.8818 11.0115 13.8317 11.0325C13.7816 11.0536 13.7363 11.0844 13.6982 11.1232L9.99825 14.8315L6.29825 11.1232C6.25951 11.0841 6.21343 11.0531 6.16266 11.032C6.11188 11.0108 6.05742 10.9999 6.00242 10.9999C5.94741 10.9999 5.89295 11.0108 5.84218 11.032C5.7914 11.0531 5.74532 11.0841 5.70658 11.1232L5.12325 11.7149C5.0842 11.7536 5.0532 11.7997 5.03204 11.8505C5.01089 11.9012 5 11.9557 5 12.0107C5 12.0657 5.01089 12.1202 5.03204 12.1709C5.0532 12.2217 5.0842 12.2678 5.12325 12.3065L9.39825 16.5899Z" fill="currentColor"/>
</svg>
