<svg width="20" height="20" viewBox="0 0 20 20" fill="none" xmlns="http://www.w3.org/2000/svg">
<path d="M6.66667 9.16671H10.4167C10.6903 9.16673 10.9612 9.11287 11.214 9.00818C11.4668 8.9035 11.6965 8.75004 11.8899 8.55658C12.0834 8.36313 12.2369 8.13345 12.3416 7.88068C12.4463 7.6279 12.5002 7.35698 12.5002 7.08337C12.5002 6.80977 12.4463 6.53885 12.3416 6.28607C12.2369 6.0333 12.0834 5.80362 11.8899 5.61016C11.6965 5.41671 11.4668 5.26325 11.214 5.15857C10.9612 5.05388 10.6903 5.00001 10.4167 5.00004H6.66667V9.16671ZM15 12.9167C15 13.9113 14.6049 14.8651 13.9017 15.5684C13.1984 16.2716 12.2446 16.6667 11.25 16.6667H5V3.33337H10.4167C11.1508 3.3334 11.8688 3.54892 12.4816 3.95319C13.0944 4.35746 13.575 4.93271 13.8639 5.6076C14.1528 6.28249 14.2373 7.02734 14.1068 7.74978C13.9764 8.47223 13.6367 9.14049 13.13 9.67171C13.6989 10.0011 14.1711 10.4743 14.4993 11.0439C14.8276 11.6135 15.0002 12.2593 15 12.9167ZM6.66667 10.8334V15H11.25C11.5236 15.0001 11.7945 14.9462 12.0473 14.8415C12.3001 14.7368 12.5298 14.5834 12.7233 14.3899C12.9167 14.1965 13.0702 13.9668 13.1749 13.714C13.2796 13.4612 13.3335 13.1903 13.3335 12.9167C13.3335 12.6431 13.2796 12.3722 13.1749 12.1194C13.0702 11.8666 12.9167 11.637 12.7233 11.4435C12.5298 11.25 12.3001 11.0966 12.0473 10.9919C11.7945 10.8872 11.5236 10.8333 11.25 10.8334H6.66667Z" fill="currentColor"/>
</svg>
