<svg width="20" height="20" viewBox="0 0 20 20" fill="none" xmlns="http://www.w3.org/2000/svg">
<path d="M14.295 11.6667C14.4867 12.0967 14.5833 12.575 14.5833 13.1C14.5833 14.2184 14.1467 15.0934 13.2742 15.7225C12.4 16.3517 11.1942 16.6667 9.655 16.6667C8.28833 16.6667 6.93583 16.3492 5.59667 15.7134V13.8334C6.86333 14.5642 8.15917 14.93 9.485 14.93C11.6108 14.93 12.6767 14.32 12.6842 13.0992C12.6886 12.8517 12.643 12.6058 12.5502 12.3763C12.4574 12.1468 12.3193 11.9383 12.1442 11.7634L12.0442 11.6659H2.5V9.99921H17.5V11.6659H14.295V11.6667ZM10.8967 9.16671H6.3575C6.21152 9.03361 6.07741 8.88806 5.95667 8.73171C5.59667 8.26671 5.41667 7.70504 5.41667 7.04337C5.41667 6.01337 5.805 5.13754 6.58083 4.41587C7.35833 3.69421 8.55917 3.33337 10.185 3.33337C11.4108 3.33337 12.5842 3.60671 13.7033 4.15337V5.94671C12.7033 5.37421 11.6075 5.08837 10.415 5.08837C8.34833 5.08837 7.31583 5.74004 7.31583 7.04337C7.31583 7.39337 7.4975 7.69837 7.86083 7.95921C8.22417 8.22004 8.6725 8.42754 9.205 8.58421C9.72167 8.73421 10.2858 8.92921 10.8967 9.16671Z" fill="#002FA7"/>
</svg>
