<svg width="20" height="20" viewBox="0 0 20 20" fill="none" xmlns="http://www.w3.org/2000/svg">
<path d="M6.66659 2.5V10C6.66659 10.8841 7.01777 11.7319 7.6429 12.357C8.26802 12.9821 9.11586 13.3333 9.99992 13.3333C10.884 13.3333 11.7318 12.9821 12.3569 12.357C12.9821 11.7319 13.3333 10.8841 13.3333 10V2.5H14.9999V10C14.9999 11.3261 14.4731 12.5979 13.5355 13.5355C12.5978 14.4732 11.326 15 9.99992 15C8.67384 15 7.40207 14.4732 6.46438 13.5355C5.5267 12.5979 4.99992 11.3261 4.99992 10V2.5H6.66659ZM3.33325 16.6667H16.6666V18.3333H3.33325V16.6667Z" fill="#002FA7"/>
</svg>
